<svg width="48" height="48" viewBox="0 0 48 48" fill="none" xmlns="http://www.w3.org/2000/svg">
<g clip-path="url(#clip0_1249_50709)">
<path d="M28.8508 7.19093C28.0603 7.52097 27.4691 8.18106 27.117 9.10519C27.0107 9.39398 26.8712 9.64977 26.8114 9.67452C26.7516 9.69928 23.3239 10.5904 19.192 11.6713C14.9737 12.7605 11.5991 13.6763 11.4862 13.7588C11.3799 13.8331 11.2205 14.0229 11.1408 14.1797C11.0079 14.4189 10.988 14.551 10.988 15.3431V16.2342L9.30067 16.2589C7.41409 16.2837 7.38751 16.2919 7.12844 16.9025C7.00887 17.1666 7.00222 17.4389 7.00222 20.7393C7.00222 25.5497 6.83615 25.2362 9.37375 25.2362H10.988V26.2428C10.988 27.8436 11.1009 28.0086 12.4162 28.3551L13.2798 28.5779L13.313 33.3636C13.3529 38.372 13.3529 38.3885 13.6584 39.1311C13.8311 39.5602 14.3891 40.278 14.7346 40.5338C15.9569 41.4167 17.5777 41.0124 18.428 39.6014C18.8665 38.8753 18.9794 38.3968 19.0126 37.0683L19.0392 35.9049L19.5906 35.8472C21.4771 35.6739 23.1312 34.1062 23.7822 31.8866C23.9085 31.4493 23.9483 31.3833 24.0812 31.4081C24.1675 31.4246 24.8385 31.5896 25.5692 31.7794L26.8911 32.1259L27.1103 32.687C28.0204 35.0138 30.5049 35.5171 31.9265 33.6689C32.3317 33.1408 32.511 32.7612 32.6705 32.0764C32.7701 31.6638 32.7767 30.5334 32.7635 20.6898L32.7435 9.76529L32.531 9.20421C32.1324 8.16456 31.5677 7.52097 30.7307 7.17442C30.1661 6.93514 29.4354 6.94339 28.8508 7.19093ZM30.3056 9.64152C30.4252 9.73228 30.5779 9.92206 30.651 10.0706C30.7839 10.3346 30.7839 10.5079 30.7839 20.9126V31.4823L30.6311 31.7629C30.2059 32.555 29.256 32.4807 28.9239 31.6308C28.791 31.2925 28.791 31.1193 28.791 20.9208C28.791 9.35273 28.7644 10.0871 29.2494 9.67452C29.5483 9.42699 29.9934 9.41049 30.3056 9.64152ZM26.7981 20.8631C26.7981 28.1736 26.7848 29.5268 26.7051 29.5268C26.6586 29.5268 26.1272 29.3948 25.5293 29.238C24.9315 29.0812 23.1379 28.6192 21.5502 28.2066C19.9626 27.7941 17.3917 27.1175 15.8439 26.7132C14.2961 26.3088 13.0141 25.9788 13.0008 25.9788C12.9941 25.9788 12.9809 23.6932 12.9809 20.9043C12.9809 16.9108 13.0008 15.8216 13.0672 15.7969C13.1071 15.7721 15.3324 15.1945 17.9963 14.5014C20.6667 13.8166 23.7158 13.0162 24.772 12.7357C25.8349 12.4552 26.7184 12.2159 26.7516 12.2076C26.7782 12.2076 26.7981 16.0939 26.7981 20.8631ZM10.988 20.7393V22.7608H9.99154H8.9951V20.7393V18.7178H9.99154H10.988V20.7393ZM16.3222 29.37L17.033 29.5515V33.5864C17.033 37.9595 17.033 37.9842 16.6677 38.339C16.2691 38.7268 15.5583 38.4628 15.3922 37.8605C15.3324 37.6542 15.3125 36.3917 15.3125 33.3306L15.3059 29.0977L15.4587 29.1472C15.5384 29.172 15.9237 29.271 16.3222 29.37ZM20.5139 30.4674C21.2646 30.6655 21.9023 30.847 21.9222 30.8717C21.9421 30.8965 21.889 31.1275 21.796 31.3751C21.5967 31.9114 21.1051 32.588 20.6999 32.885C20.3213 33.1655 19.6769 33.4048 19.3182 33.4048H19.0259V31.7546C19.0259 30.847 19.0525 30.1044 19.079 30.1044C19.1123 30.1044 19.7566 30.2694 20.5139 30.4674Z" fill="black" fill-opacity="0.87"/>
<path d="M38.2567 8.10673C38.0109 8.247 35.9914 10.3428 35.8054 10.6481C35.6261 10.9616 35.6261 11.6217 35.8054 11.927C36.1376 12.4798 36.669 12.6696 37.0742 12.3891C37.4462 12.1333 39.3594 10.1283 39.4922 9.85597C39.9772 8.86583 39.1003 7.63641 38.2567 8.10673Z" fill="black" fill-opacity="0.87"/>
<path d="M35.4801 19.5757C35.1413 19.7325 35.035 19.8563 34.8889 20.2688C34.6896 20.8216 34.849 21.4487 35.2542 21.7623C35.4734 21.9273 35.5598 21.9355 37.9047 21.9355C40.3161 21.9355 40.3294 21.9355 40.5553 21.7458C41.1598 21.2424 41.1465 20.2523 40.522 19.6747C40.3493 19.5097 40.2497 19.5015 38.0376 19.485C36.2241 19.4685 35.6794 19.485 35.4801 19.5757Z" fill="black" fill-opacity="0.87"/>
<path d="M36.184 29.0816C35.7323 29.3621 35.5197 30.2863 35.7854 30.7896C35.8983 31.0041 37.6321 32.8359 38.0706 33.2072C38.416 33.496 38.6884 33.529 39.0471 33.3392C39.4722 33.0999 39.6317 32.7616 39.5984 32.151C39.5852 31.8292 39.532 31.623 39.4457 31.4992C39.2796 31.2682 37.486 29.4034 37.1804 29.1476C36.9014 28.9166 36.5028 28.8918 36.184 29.0816Z" fill="black" fill-opacity="0.87"/>
</g>
<defs>
<clipPath id="clip0_1249_50709">
<rect width="34" height="34" fill="white" transform="matrix(1 0 0 -1 7 41)"/>
</clipPath>
</defs>
</svg>
