<svg width="48" height="48" viewBox="0 0 48 48" fill="none" xmlns="http://www.w3.org/2000/svg">
<g clip-path="url(#clip0_1249_50726)">
<path fill-rule="evenodd" clip-rule="evenodd" d="M18.0071 20.8237C18.7355 20.8237 19.0511 21.116 19.5741 21.5988C20.1904 22.1642 21.0332 22.9414 22.6024 22.9414C23.7332 22.9414 24.4786 22.5285 25.0376 22.0859C24.9275 24.9087 22.615 27.1767 19.7647 27.1767C17.1494 27.1767 14.9831 25.2645 14.5595 22.7677C15.4108 22.5115 15.9783 22.0096 16.4146 21.6052C16.944 21.1181 17.2638 20.8237 18.0071 20.8237ZM42 6V27.1765H35.6471V25.0588H39.8824V8.11766H8.11763V25.0588H10.2353V27.1765H6V6.00004H42V6ZM19.7647 14.4708C22.5473 14.4708 24.8111 16.6372 25.0186 19.3689C24.6925 19.5871 24.4045 19.8221 24.1567 20.0508C23.6358 20.5336 23.3245 20.8238 22.6023 20.8238C21.8591 20.8238 21.5393 20.5294 21.0099 20.0424C20.4 19.4791 19.5614 18.7061 18.0071 18.7061C16.4379 18.7061 15.595 19.4833 14.9788 20.0487C14.7925 20.2202 14.6315 20.3579 14.4706 20.4765V19.7649C14.4706 16.8468 16.8445 14.4708 19.7647 14.4708ZM33.5972 19.3922L27.7821 34.8976C23.7056 35.3212 18.7334 35.3593 15.8089 34.292L15.0805 36.2826C19.4428 37.8751 26.609 37.1889 29.093 37.028L29.2264 37.0788L29.2496 37.0174C29.2624 37.0174 29.2856 37.0153 29.3005 37.0153L28.7033 38.648C28.6207 38.8788 28.4301 39.044 28.1845 39.0991C25.9821 39.6052 22.9899 39.8826 19.7647 39.8826C16.5438 39.8826 13.2656 39.2706 10.2353 38.108V33.3602C10.2353 31.9414 11.184 30.6835 12.5457 30.296C14.8687 29.6332 17.2595 29.288 19.7118 29.2901C19.7287 29.2901 19.7456 29.2943 19.7647 29.2943C19.7753 29.2943 19.7838 29.2922 19.7943 29.2922C22.1619 29.3007 24.5845 29.6289 27.06 30.3172L27.7546 28.3181L27.4793 28.2313C26.4755 27.9539 25.4591 27.7506 24.4447 27.5812C26.0965 26.2216 27.1765 24.1866 27.1765 21.8826V19.7649C27.1765 15.6779 23.8518 12.3532 19.7647 12.3532C15.6776 12.3532 12.353 15.6779 12.353 19.7649V21.8826C12.353 24.1823 13.4287 26.2153 15.0784 27.5769C14.028 27.7505 12.9861 27.9687 11.9654 28.2588C9.69953 28.9026 8.11764 31.0012 8.11764 33.3602V39.5289L8.772 39.8021C12.2322 41.2399 16.0355 42.0002 19.7647 42.0002C23.1466 42.0002 26.304 41.7037 28.6567 41.1637C29.6012 40.9456 30.3614 40.2807 30.6918 39.3764L31.289 37.7437C31.5579 37.0068 31.4308 36.2021 30.9438 35.5922C30.7002 35.2852 30.389 35.0543 30.0395 34.9124L35.5793 20.1376L33.5972 19.3922V19.3922Z" fill="#2D2D2D"/>
</g>
<defs>
<clipPath id="clip0_1249_50726">
<rect width="36" height="36" fill="white" transform="translate(6 6)"/>
</clipPath>
</defs>
</svg>
