<svg width="17" height="18" viewBox="0 0 17 18" fill="none" xmlns="http://www.w3.org/2000/svg">
<g clip-path="url(#clip0_2898_9139)">
<path d="M14.6804 4.57963C14.5994 4.47522 14.4815 4.40586 14.3509 4.38586C14.2203 4.36586 14.087 4.39675 13.9785 4.47216C13.8701 4.54756 13.7947 4.66173 13.7679 4.79111C13.7411 4.92048 13.7651 5.05519 13.8347 5.16745C14.4357 6.0309 14.825 7.02367 14.9711 8.06547C15.1173 9.10727 15.0162 10.1688 14.676 11.1643C14.3358 12.1598 13.7661 13.0612 13.0129 13.7957C12.2597 14.5302 11.3443 15.0771 10.3405 15.3921C9.33682 15.7072 8.27304 15.7816 7.23525 15.6093C6.19745 15.437 5.21477 15.0229 4.3667 14.4004C3.51863 13.7779 2.82898 12.9646 2.35353 12.0261C1.87808 11.0877 1.63018 10.0505 1.62989 8.99854C1.63638 7.55619 2.10511 6.15392 2.96726 4.99759C3.8294 3.84125 5.03955 2.99177 6.42004 2.57385C6.48505 2.55455 6.54561 2.52264 6.59828 2.47994C6.65095 2.43723 6.6947 2.38457 6.72702 2.32496C6.75934 2.26535 6.7796 2.19996 6.78665 2.13251C6.79369 2.06507 6.78739 1.9969 6.76809 1.9319C6.74879 1.8669 6.71688 1.80633 6.67417 1.75366C6.63147 1.70099 6.57881 1.65724 6.51919 1.62492C6.45958 1.5926 6.39419 1.57234 6.32675 1.5653C6.25931 1.55825 6.19114 1.56455 6.12614 1.58385C4.75131 1.99315 3.51739 2.77673 2.5623 3.84699C1.60721 4.91726 0.96857 6.23205 0.717769 7.64442C0.466968 9.05679 0.613885 10.5111 1.1421 11.8447C1.67031 13.1784 2.55901 14.3389 3.70887 15.1965C4.85872 16.0541 6.22442 16.5751 7.65334 16.7011C9.08225 16.8272 10.5181 16.5534 11.8003 15.9103C13.0825 15.2673 14.1607 14.2803 14.9142 13.0597C15.6678 11.8391 16.067 10.433 16.0674 8.99854C16.0703 7.41801 15.5859 5.87501 14.6804 4.57963Z" fill="black" fill-opacity="0.6"/>
<path d="M10.2458 2.57476C11.0497 2.81867 11.8002 3.2123 12.4578 3.73492C12.511 3.7769 12.5719 3.808 12.6371 3.82645C12.7022 3.84489 12.7704 3.85032 12.8377 3.84242C12.905 3.83452 12.97 3.81345 13.0291 3.7804C13.0883 3.74736 13.1403 3.703 13.1823 3.64984C13.2243 3.59669 13.2554 3.53578 13.2738 3.47061C13.2923 3.40543 13.2977 3.33727 13.2898 3.26999C13.2819 3.20272 13.2608 3.13767 13.2278 3.07854C13.1947 3.01941 13.1504 2.96737 13.0972 2.92539C12.3309 2.31858 11.4559 1.86357 10.5191 1.58476C10.3878 1.54579 10.2464 1.56056 10.126 1.62583C10.0056 1.69111 9.91611 1.80153 9.87713 1.93281C9.83816 2.06409 9.85293 2.20548 9.9182 2.32587C9.98347 2.44626 10.0939 2.53579 10.2252 2.57476H10.2458ZM7.96674 2.14679C8.01686 2.19234 8.07441 2.22896 8.1369 2.25508C8.19862 2.28235 8.26536 2.29645 8.33284 2.29645C8.40032 2.29645 8.46705 2.28235 8.52877 2.25508C8.59121 2.22887 8.64875 2.19226 8.69893 2.14679C8.74672 2.09861 8.78453 2.04147 8.81019 1.97865C8.83585 1.91583 8.84885 1.84856 8.84846 1.7807C8.84656 1.64418 8.79315 1.51342 8.69893 1.41461C8.6394 1.35252 8.56528 1.30632 8.48333 1.2802C8.40137 1.25409 8.31419 1.24889 8.22971 1.26508C8.19743 1.27079 8.16616 1.28122 8.1369 1.29601C8.10399 1.30718 8.07276 1.3228 8.04409 1.34242L7.96674 1.40429C7.9198 1.45333 7.883 1.51116 7.85846 1.57445C7.83068 1.63964 7.81664 1.70985 7.81721 1.7807C7.81802 1.84808 7.83204 1.91465 7.85846 1.97664C7.88466 2.03908 7.92128 2.09661 7.96674 2.14679ZM5.81658 5.80258C5.71632 5.87746 5.64233 5.98214 5.60518 6.10164L3.87268 11.1445C3.83149 11.2358 3.8137 11.3359 3.8209 11.4358C3.8281 11.5358 3.86007 11.6323 3.91393 11.7168C3.96443 11.7729 4.02663 11.8172 4.09612 11.8466C4.16561 11.876 4.24071 11.8897 4.31612 11.887C4.41671 11.8881 4.51477 11.8554 4.59455 11.7941C4.66493 11.7338 4.72275 11.6602 4.76471 11.5776C4.80943 11.4984 4.84737 11.4156 4.87815 11.3301L4.95549 11.1238L5.23908 10.3195H7.15205L7.55424 11.4435C7.58656 11.5594 7.64675 11.6656 7.72955 11.7529C7.77302 11.7959 7.82455 11.8298 7.88118 11.8528C7.93781 11.8758 7.99843 11.8874 8.05955 11.887H8.09565C8.18742 11.8968 8.27995 11.8777 8.36037 11.8324C8.44078 11.7871 8.50506 11.7179 8.54424 11.6343C8.60254 11.4815 8.60254 11.3127 8.54424 11.1599L6.80658 6.10679C6.77004 5.98282 6.694 5.87419 6.59002 5.79742C6.47433 5.72361 6.33977 5.68482 6.20254 5.68573C6.06531 5.68665 5.93128 5.72723 5.81658 5.80258ZM6.20846 7.34945L6.87877 9.3707H5.53815L6.20846 7.34945ZM9.6683 9.51508C9.80008 9.56425 9.94024 9.58703 10.0808 9.58211H11.0863V10.8505C11.079 10.92 11.0873 10.9903 11.1106 11.0562C11.134 11.1221 11.1717 11.1819 11.2211 11.2313C11.2706 11.2807 11.3304 11.3185 11.3963 11.3418C11.4621 11.3651 11.5324 11.3735 11.6019 11.3662C11.6936 11.3762 11.7861 11.3559 11.8653 11.3084C11.9444 11.2609 12.0058 11.1889 12.0402 11.1032C12.0881 10.9675 12.1108 10.8242 12.1072 10.6804V9.60273H13.2931C13.3603 9.60738 13.4276 9.59687 13.4901 9.57197C13.5526 9.54708 13.6087 9.50845 13.6543 9.45893C13.6998 9.40942 13.7337 9.35029 13.7533 9.28592C13.7729 9.22156 13.7777 9.15361 13.7675 9.08711C13.7771 8.99609 13.7572 8.90441 13.7108 8.82553C13.6644 8.74664 13.5939 8.68471 13.5097 8.64883C13.3911 8.60384 13.2653 8.58112 13.1385 8.58179H12.1072V7.35976C12.1125 7.29205 12.1025 7.22402 12.078 7.16067C12.0535 7.09733 12.0151 7.0403 11.9656 6.99378C11.9161 6.94726 11.8568 6.91245 11.7921 6.8919C11.7274 6.87136 11.6588 6.86561 11.5916 6.87508C11.5012 6.86514 11.4099 6.88428 11.3311 6.92971C11.2523 6.97514 11.19 7.04451 11.1533 7.12773C11.1064 7.25116 11.0837 7.38244 11.0863 7.51445V8.59211H10.0756C9.93516 8.58835 9.79522 8.61109 9.66315 8.65914C9.57992 8.69586 9.51056 8.75814 9.46513 8.83695C9.4197 8.91576 9.40056 9.007 9.41049 9.09742C9.40388 9.18534 9.42526 9.27309 9.47157 9.34811C9.51788 9.42314 9.58675 9.48158 9.6683 9.51508Z" fill="black" fill-opacity="0.6"/>
</g>
<defs>
<clipPath id="clip0_2898_9139">
<rect width="16.5" height="16.5" fill="white" transform="translate(0.0830078 0.75)"/>
</clipPath>
</defs>
</svg>
