<svg width="18" height="17" viewBox="0 0 18 17" fill="none" xmlns="http://www.w3.org/2000/svg">
<path d="M10.4099 8.5L16.7099 2.21C16.8982 2.0217 17.004 1.7663 17.004 1.5C17.004 1.2337 16.8982 0.978306 16.7099 0.790002C16.5216 0.601699 16.2662 0.495911 15.9999 0.495911C15.7336 0.495911 15.4782 0.601699 15.2899 0.790002L8.99994 7.09L2.70994 0.790002C2.52164 0.601699 2.26624 0.495911 1.99994 0.495911C1.73364 0.495911 1.47824 0.601699 1.28994 0.790002C1.10164 0.978306 0.995847 1.2337 0.995847 1.5C0.995847 1.7663 1.10164 2.0217 1.28994 2.21L7.58994 8.5L1.28994 14.79C1.19621 14.883 1.12182 14.9936 1.07105 15.1154C1.02028 15.2373 0.994141 15.368 0.994141 15.5C0.994141 15.632 1.02028 15.7627 1.07105 15.8846C1.12182 16.0064 1.19621 16.117 1.28994 16.21C1.3829 16.3037 1.4935 16.3781 1.61536 16.4289C1.73722 16.4797 1.86793 16.5058 1.99994 16.5058C2.13195 16.5058 2.26266 16.4797 2.38452 16.4289C2.50638 16.3781 2.61698 16.3037 2.70994 16.21L8.99994 9.91L15.2899 16.21C15.3829 16.3037 15.4935 16.3781 15.6154 16.4289C15.7372 16.4797 15.8679 16.5058 15.9999 16.5058C16.132 16.5058 16.2627 16.4797 16.3845 16.4289C16.5064 16.3781 16.617 16.3037 16.7099 16.21C16.8037 16.117 16.8781 16.0064 16.9288 15.8846C16.9796 15.7627 17.0057 15.632 17.0057 15.5C17.0057 15.368 16.9796 15.2373 16.9288 15.1154C16.8781 14.9936 16.8037 14.883 16.7099 14.79L10.4099 8.5Z" fill="#2D2D2D"/>
</svg>
