<svg width="49" height="48" viewBox="0 0 49 48" fill="none" xmlns="http://www.w3.org/2000/svg">
<path d="M42.2329 27.2995C42.0329 27.6995 41.6329 27.8995 41.1329 27.8995C40.7329 27.8995 40.3329 27.8995 39.8329 27.8995C39.8329 27.9995 39.8329 28.1995 39.8329 28.2995C39.8329 31.4995 39.8329 34.6995 39.8329 37.9995C39.8329 38.6995 39.5329 38.9995 38.8329 38.9995C37.3329 38.9995 35.9329 38.9995 34.4329 38.9995C33.7329 38.9995 33.4329 38.6995 33.4329 37.9995C33.4329 34.7995 33.4329 31.5995 33.4329 28.3995C33.4329 28.2995 33.4329 28.0995 33.4329 27.8995C32.9329 27.8995 32.4329 27.8995 31.9329 27.8995C31.3329 27.8995 30.9329 27.4995 31.0329 26.9995C31.0329 26.8995 31.1329 26.6995 31.2329 26.5995C32.8329 24.4995 34.3329 22.3995 35.9329 20.3995C36.3329 19.8995 36.9329 19.8995 37.3329 20.4995C38.7329 22.2995 40.0329 24.0995 41.4329 25.8995C41.6329 26.1995 41.9329 26.5995 42.1329 26.8995C42.2329 26.8995 42.2329 27.0995 42.2329 27.2995ZM35.0329 37.2995C36.0329 37.2995 37.1329 37.2995 38.1329 37.2995C38.1329 37.0995 38.1329 36.9995 38.1329 36.8995C38.1329 33.6995 38.1329 30.3995 38.1329 27.1995C38.1329 26.4995 38.4329 26.2995 39.0329 26.1995C39.2329 26.1995 39.3329 26.1995 39.6329 26.1995C38.5329 24.7995 37.5329 23.3995 36.5329 22.0995C35.5329 23.4995 34.5329 24.7995 33.4329 26.1995C33.6329 26.1995 33.7329 26.1995 33.9329 26.1995C34.7329 26.1995 35.0329 26.4995 35.0329 27.2995C35.0329 29.6995 35.0329 31.9995 35.0329 34.3995C35.0329 35.2995 35.0329 36.2995 35.0329 37.2995Z" fill="black" fill-opacity="0.87"/>
<path d="M28.0326 30.2C28.0326 30.4 28.0326 30.5 28.0326 30.6C28.0326 33 28.0326 35.5 28.0326 37.9C28.0326 38.6 27.7326 38.9 27.0326 38.9C25.5326 38.9 24.1326 38.9 22.6326 38.9C21.9326 38.9 21.6326 38.6 21.6326 37.9C21.6326 35.5 21.6326 33 21.6326 30.6C21.6326 30.5 21.6326 30.4 21.6326 30.2C21.1326 30.2 20.6326 30.2 20.2326 30.2C19.8326 30.2 19.5326 30.1 19.3326 29.7C19.1326 29.4 19.2326 29.1 19.5326 28.8C21.0326 26.8 22.5326 24.7 24.1326 22.7C24.6326 22.1 25.1326 22.1 25.6326 22.7C27.1326 24.7 28.7326 26.8 30.2326 28.8C30.4326 29.1 30.5326 29.4 30.3326 29.7C30.2326 30 29.9326 30.2 29.5326 30.2C29.0326 30.2 28.5326 30.2 28.0326 30.2ZM21.7326 28.6C21.9326 28.6 22.0326 28.6 22.2326 28.6C23.0326 28.6 23.3326 28.9 23.3326 29.7C23.3326 32.1 23.3326 34.5 23.3326 36.9C23.3326 37 23.3326 37.2 23.3326 37.3C24.4326 37.3 25.4326 37.3 26.4326 37.3C26.4326 37.1 26.4326 37 26.4326 36.9C26.4326 34.5 26.4326 32 26.4326 29.6C26.4326 28.9 26.7326 28.7 27.3326 28.6C27.5326 28.6 27.7326 28.6 27.9326 28.6C26.8326 27.2 25.8326 25.8 24.8326 24.4C23.8326 25.8 22.7326 27.2 21.7326 28.6Z" fill="black" fill-opacity="0.87"/>
<path d="M16.233 32.5995C16.233 32.7995 16.233 32.9995 16.233 33.0995C16.233 34.6995 16.233 36.2995 16.233 37.8995C16.233 38.4995 15.933 38.7995 15.333 38.7995C13.833 38.7995 12.333 38.7995 10.833 38.7995C10.133 38.8995 9.83304 38.5995 9.83304 37.9995C9.83304 36.2995 9.83304 34.6995 9.83304 32.9995C9.83304 32.8995 9.83304 32.7995 9.83304 32.5995C9.43304 32.5995 8.93304 32.5995 8.53304 32.5995C8.13304 32.5995 7.73304 32.5995 7.53304 32.0995C7.33304 31.6995 7.53304 31.3995 7.73304 30.9995C9.23304 28.9995 10.733 27.0995 12.233 25.0995C12.633 24.4995 13.333 24.3995 13.833 25.0995C15.233 27.0995 16.733 28.9995 18.233 30.9995C18.333 31.0995 18.333 31.1995 18.433 31.1995C18.633 31.4995 18.733 31.7995 18.533 32.0995C18.333 32.3995 18.133 32.5995 17.733 32.5995C17.233 32.5995 16.733 32.5995 16.233 32.5995ZM14.633 37.2995C14.633 37.1995 14.633 36.9995 14.633 36.8995C14.633 35.2995 14.633 33.5995 14.633 31.9995C14.633 31.2995 14.933 30.9995 15.633 30.9995C15.833 30.9995 15.933 30.9995 16.233 30.9995C15.133 29.5995 14.133 28.1995 13.133 26.8995C12.133 28.2995 11.033 29.5995 10.033 30.9995C10.233 30.9995 10.433 30.9995 10.533 30.9995C11.333 30.9995 11.633 31.2995 11.633 32.0995C11.633 33.6995 11.633 35.3995 11.633 36.9995C11.633 37.0995 11.633 37.1995 11.633 37.3995C12.533 37.2995 13.533 37.2995 14.633 37.2995Z" fill="black" fill-opacity="0.87"/>
<path d="M17.9334 18.9994C17.8334 19.1994 17.7334 19.4994 17.5334 19.5994C17.0334 20.0994 16.5334 20.4994 16.0334 20.9994C15.9334 21.0994 15.8334 21.1994 15.8334 21.3994C15.9334 22.0994 16.1334 22.7994 16.2334 23.3994C16.3334 23.7994 16.2334 24.0994 15.9334 24.2994C15.6334 24.4994 15.3334 24.4994 15.0334 24.3994C14.4334 24.0994 13.8334 23.6994 13.2334 23.3994C13.1334 23.2994 12.9334 23.2994 12.7334 23.3994C12.1334 23.6994 11.5334 23.9994 11.0334 24.2994C10.7334 24.4994 10.3334 24.5994 10.0334 24.2994C9.73344 24.0994 9.63344 23.6994 9.73344 23.2994C9.83344 22.6994 10.0334 21.9994 10.1334 21.2994C10.1334 21.1994 10.1334 20.9994 10.0334 20.8994C9.53344 20.3994 9.13344 19.9994 8.63344 19.4994C8.33344 19.1994 8.13344 18.8994 8.33344 18.4994C8.43344 18.0994 8.73344 17.9994 9.13344 17.8994C9.83344 17.7994 10.4334 17.6994 11.1334 17.5994C11.2334 17.5994 11.4334 17.4994 11.4334 17.2994C11.7334 16.6994 12.0334 16.0994 12.2334 15.4994C12.4334 15.0994 12.6334 14.8994 13.0334 14.8994C13.4334 14.8994 13.7334 15.0994 13.8334 15.4994C14.1334 16.0994 14.3334 16.5994 14.6334 17.1994C14.7334 17.3994 14.8334 17.4994 15.1334 17.4994C15.8334 17.5994 16.4334 17.6994 17.1334 17.7994C17.5334 18.1994 17.8334 18.5994 17.9334 18.9994ZM14.3334 22.1994C14.3334 22.1994 14.3334 22.0994 14.4334 22.0994C14.3334 21.7994 14.3334 21.4994 14.2334 21.2994C14.1334 20.8994 14.2334 20.5994 14.5334 20.2994C14.7334 20.0994 14.9334 19.8994 15.2334 19.6994C14.8334 19.5994 14.5334 19.5994 14.2334 19.5994C13.8334 19.5994 13.6334 19.3994 13.5334 19.0994C13.4334 18.7994 13.2334 18.4994 13.1334 18.1994C12.9334 18.4994 12.8334 18.7994 12.7334 19.0994C12.5334 19.4994 12.3334 19.6994 11.9334 19.6994C11.6334 19.6994 11.3334 19.7994 11.0334 19.7994C11.3334 20.1994 11.8334 20.4994 11.9334 20.8994C12.0334 21.2994 11.9334 21.7994 11.8334 22.3994C12.6334 21.3994 13.4334 21.3994 14.3334 22.1994Z" fill="black" fill-opacity="0.87"/>
<path d="M36.6334 9.09961C37.0334 9.09961 37.2334 9.29961 37.4334 9.59961C37.7334 10.1996 38.0334 10.7996 38.2334 11.3996C38.3334 11.6996 38.5334 11.6996 38.7334 11.7996C39.3334 11.8996 40.0334 11.9996 40.6334 12.0996C41.0334 12.0996 41.2334 12.2996 41.3334 12.6996C41.4334 12.9996 41.3334 13.2996 41.0334 13.5996C40.5334 14.0996 40.0334 14.4996 39.5334 14.9996C39.4334 15.0996 39.3334 15.2996 39.4334 15.3996C39.5334 15.9996 39.6334 16.6996 39.8334 17.2996C39.9334 17.6996 39.9334 17.9996 39.5334 18.2996C39.1334 18.5996 38.8334 18.4996 38.5334 18.2996C38.0334 17.9996 37.4334 17.6996 36.9334 17.3996C36.7334 17.2996 36.5334 17.2996 36.3334 17.3996C35.7334 17.6996 35.2334 17.9996 34.6334 18.2996C34.3334 18.4996 33.9334 18.4996 33.6334 18.2996C33.3334 18.0996 33.2334 17.6996 33.3334 17.3996C33.4334 16.6996 33.6334 16.0996 33.7334 15.3996C33.7334 15.2996 33.7334 15.0996 33.6334 14.9996C33.1334 14.4996 32.6334 14.0996 32.1334 13.5996C31.8334 13.2996 31.7334 12.9996 31.8334 12.5996C31.9334 12.1996 32.2334 12.0996 32.6334 11.9996C33.2334 11.8996 33.9334 11.7996 34.5334 11.7996C34.8334 11.7996 34.9334 11.6996 35.0334 11.3996C35.3334 10.7996 35.6334 10.1996 35.8334 9.59961C36.0334 9.29961 36.2334 9.09961 36.6334 9.09961ZM35.2334 15.9996C35.5334 15.7996 35.8334 15.6996 36.0334 15.5996C36.4334 15.2996 36.8334 15.3996 37.1334 15.5996C37.3334 15.6996 37.6334 15.8996 37.9334 15.9996C37.8334 15.6996 37.8334 15.3996 37.7334 15.1996C37.6334 14.6996 37.7334 14.3996 38.1334 14.0996C38.3334 13.8996 38.5334 13.6996 38.7334 13.4996C38.3334 13.4996 38.1334 13.3996 37.8334 13.3996C37.4334 13.3996 37.1334 13.1996 37.0334 12.7996C36.9334 12.4996 36.7334 12.1996 36.6334 11.9996C36.3334 12.3996 36.2334 12.8996 35.8334 13.1996C35.5334 13.4996 34.9334 13.4996 34.4334 13.5996C34.6334 13.7996 34.9334 13.9996 35.1334 14.2996C35.4334 14.4996 35.4334 14.7996 35.4334 15.1996C35.4334 15.2996 35.3334 15.5996 35.2334 15.9996Z" fill="black" fill-opacity="0.87"/>
<path d="M29.7326 15.8998C29.6326 16.0998 29.5326 16.3998 29.3326 16.4998C28.8326 16.9998 28.3326 17.3998 27.8326 17.8998C27.6326 17.9998 27.6326 18.1998 27.6326 18.3998C27.7326 18.9998 27.8326 19.5998 28.0326 20.2998C28.1326 20.6998 28.1326 21.0998 27.7326 21.2998C27.3326 21.4998 27.0326 21.4998 26.7326 21.2998C26.1326 20.9998 25.6326 20.6998 25.0326 20.3998C24.8326 20.2998 24.7326 20.2998 24.5326 20.3998C23.9326 20.6998 23.4326 20.9998 22.8326 21.3998C22.5326 21.5998 22.1326 21.6998 21.8326 21.3998C21.5326 21.1998 21.4326 20.8998 21.5326 20.4998C21.6326 19.7998 21.8326 19.1998 21.9326 18.4998C21.9326 18.3998 21.9326 18.1998 21.8326 18.0998C21.3326 17.5998 20.8326 17.1998 20.3326 16.6998C20.0326 16.3998 19.9326 16.1998 20.0326 15.7998C20.1326 15.3998 20.4326 15.2998 20.7326 15.1998C21.4326 15.0998 22.0326 14.9998 22.7326 14.9998C22.9326 14.9998 23.0326 14.8998 23.1326 14.6998C23.4326 14.0998 23.7326 13.4998 23.9326 12.8998C24.1326 12.4998 24.3326 12.2998 24.7326 12.2998C25.1326 12.2998 25.3326 12.4998 25.5326 12.8998C25.8326 13.4998 26.1326 14.0998 26.3326 14.5998C26.4326 14.7998 26.5326 14.8998 26.8326 14.8998C27.5326 14.9998 28.2326 15.0998 28.9326 15.1998C29.4326 15.0998 29.6326 15.4998 29.7326 15.8998ZM26.1326 18.9998C26.0326 18.6998 26.0326 18.3998 25.9326 18.0998C25.8326 17.6998 25.9326 17.2998 26.2326 16.9998C26.4326 16.7998 26.6326 16.5998 26.8326 16.3998C26.5326 16.3998 26.3326 16.2998 26.1326 16.2998C25.6326 16.2998 25.2326 15.9998 25.1326 15.4998C25.0326 15.2998 24.9326 15.0998 24.8326 14.7998C24.5326 15.1998 24.4326 15.6998 24.0326 15.9998C23.7326 16.2998 23.1326 16.1998 22.7326 16.3998C23.0326 16.6998 23.4326 17.0998 23.6326 17.4998C23.7326 17.8998 23.6326 18.3998 23.5326 18.8998C23.8326 18.7998 24.0326 18.5998 24.3326 18.4998C24.7326 18.2998 25.0326 18.2998 25.3326 18.4998C25.6326 18.6998 25.8326 18.7998 26.1326 18.9998Z" fill="black" fill-opacity="0.87"/>
</svg>
