<svg width="32" height="32" viewBox="0 0 32 32" fill="none" xmlns="http://www.w3.org/2000/svg">
<g clip-path="url(#clip0_1284_35703)">
<path fill-rule="evenodd" clip-rule="evenodd" d="M12.0047 13.8825C12.4904 13.8825 12.7007 14.0773 13.0494 14.3992C13.4602 14.7761 14.0221 15.2943 15.0682 15.2943C15.8221 15.2943 16.3191 15.019 16.6918 14.7239C16.6184 16.6058 15.0767 18.1178 13.1765 18.1178C11.4329 18.1178 9.9887 16.843 9.70635 15.1785C10.2739 15.0077 10.6522 14.6731 10.9431 14.4034C11.296 14.0787 11.5092 13.8825 12.0047 13.8825ZM28 4V18.1176H23.7647V16.7059H26.5882V5.41177H5.41175V16.7059H6.82351V18.1176H4V4.00002H28V4ZM13.1765 9.64722C15.0315 9.64722 16.5407 11.0915 16.6791 12.9126C16.4617 13.058 16.2697 13.2148 16.1045 13.3672C15.7572 13.6891 15.5497 13.8825 15.0682 13.8825C14.5727 13.8825 14.3595 13.6863 14.0066 13.3616C13.6 12.986 13.0409 12.4707 12.0047 12.4707C10.9586 12.4707 10.3967 12.9889 9.98589 13.3658C9.86164 13.4802 9.75435 13.5719 9.64706 13.651V13.1766C9.64706 11.2312 11.2297 9.64722 13.1765 9.64722ZM22.3981 12.9282L18.5214 23.2651C15.8038 23.5475 12.4889 23.5729 10.5393 22.8613L10.0536 24.1884C12.9619 25.25 17.7393 24.7926 19.3953 24.6853L19.4842 24.7192L19.4998 24.6783C19.5082 24.6783 19.5238 24.6769 19.5336 24.6769L19.1355 25.7653C19.0805 25.9192 18.9534 26.0293 18.7896 26.066C17.3214 26.4035 15.3266 26.5884 13.1765 26.5884C11.0292 26.5884 8.84376 26.1804 6.82353 25.4053V22.2401C6.82353 21.2943 7.456 20.4557 8.36378 20.1973C9.91248 19.7554 11.5064 19.5253 13.1412 19.5267C13.1525 19.5267 13.1638 19.5296 13.1765 19.5296C13.1835 19.5296 13.1892 19.5281 13.1962 19.5281C14.7746 19.5338 16.3897 19.7526 18.04 20.2114L18.5031 18.8787L18.3195 18.8209C17.6504 18.6359 16.9727 18.5004 16.2965 18.3874C17.3977 17.4811 18.1177 16.1244 18.1177 14.5884V13.1766C18.1177 10.4519 15.9012 8.23545 13.1765 8.23545C10.4518 8.23545 8.2353 10.4519 8.2353 13.1766V14.5884C8.2353 16.1216 8.95248 17.4768 10.0522 18.3846C9.352 18.5004 8.65741 18.6458 7.97694 18.8392C6.46635 19.2684 5.41176 20.6674 5.41176 22.2401V26.3526L5.848 26.5347C8.15483 27.4933 10.6904 28.0001 13.1765 28.0001C15.4311 28.0001 17.536 27.8025 19.1045 27.4425C19.7341 27.2971 20.2409 26.8538 20.4612 26.251L20.8593 25.1625C21.0386 24.6712 20.9539 24.1347 20.6292 23.7281C20.4668 23.5234 20.2593 23.3696 20.0264 23.275L23.7195 13.4251L22.3981 12.9281V12.9282Z" fill="#2D2D2D"/>
</g>
<defs>
<clipPath id="clip0_1284_35703">
<rect width="24" height="24" fill="white" transform="translate(4 4)"/>
</clipPath>
</defs>
</svg>
