<svg width="37" height="36" viewBox="0 0 37 36" fill="none" xmlns="http://www.w3.org/2000/svg">
<rect x="0.714478" width="36" height="36" rx="18" fill="black" fill-opacity="0.06"/>
<g clip-path="url(#clip0_1425_83289)">
<path d="M23.0543 9.61719C22.7696 9.67695 22.4742 9.81406 22.2141 10.0004C22.0981 10.0883 19.8059 12.3523 17.1235 15.0383L12.2508 19.918L11.2629 22.9098C10.718 24.5551 10.275 25.9473 10.275 26.0035C10.275 26.2074 10.5106 26.4395 10.7215 26.4395C10.7567 26.4395 12.1383 25.9895 13.7906 25.4375L16.7965 24.4355L21.7571 19.468C27.1641 14.0609 26.8653 14.3773 27.0481 13.7832C27.1149 13.5758 27.1289 13.4352 27.1289 13.1328C27.1289 12.8305 27.1149 12.6898 27.0481 12.4824C26.8899 11.9621 26.7949 11.8391 25.8176 10.8617C24.9528 9.99336 24.9071 9.95469 24.6153 9.81406C24.4465 9.7332 24.2039 9.64531 24.0703 9.61719C23.775 9.55391 23.3391 9.55391 23.0543 9.61719ZM24.0668 10.584C24.341 10.6859 24.4887 10.816 25.2903 11.6246C26.0391 12.3875 26.1446 12.5352 26.1938 12.9219C26.2606 13.4527 26.1129 13.8219 25.6383 14.293L25.3219 14.6094L23.7012 12.9922L22.084 11.375L22.4004 11.0691C22.5762 10.9004 22.7871 10.7246 22.868 10.6754C23.2196 10.468 23.666 10.4363 24.0668 10.584ZM23.0473 13.6707L24.6539 15.2773L20.611 19.3203L16.568 23.3633L14.9508 21.7461L13.3336 20.1289L17.366 16.0965C19.5879 13.8746 21.409 12.0605 21.4196 12.0605C21.4301 12.0605 22.1614 12.7848 23.0473 13.6707ZM14.2969 22.4281L15.6996 23.8309L13.6254 24.5199C12.4828 24.8996 11.5336 25.209 11.5125 25.209C11.4914 25.209 11.7832 24.2879 12.1594 23.1594C12.9012 20.9375 12.8696 21.0254 12.8836 21.0254C12.8906 21.0254 13.527 21.6547 14.2969 22.4281Z" fill="black" fill-opacity="0.87"/>
</g>
<defs>
<clipPath id="clip0_1425_83289">
<rect width="18" height="18" fill="white" transform="translate(9.71448 9)"/>
</clipPath>
</defs>
</svg>
