<svg width="37" height="36" viewBox="0 0 37 36" fill="none" xmlns="http://www.w3.org/2000/svg">
<rect x="0.714478" width="36" height="36" rx="18" fill="black" fill-opacity="0.06"/>
<g clip-path="url(#clip0_1425_83293)">
<path d="M17.9759 12.3941C15.8947 12.591 14.1193 13.3188 12.4423 14.6687C11.9677 15.0484 11.0677 15.9555 10.6845 16.4336C10.2697 16.9574 9.75637 17.7273 9.72825 17.875C9.7177 17.9418 9.7177 18.0543 9.72825 18.1211C9.75637 18.2688 10.2697 19.0387 10.6845 19.5625C11.0677 20.0406 11.9677 20.9477 12.4423 21.3273C13.9681 22.5543 15.5782 23.268 17.431 23.5422C18.0216 23.6266 19.4068 23.6266 19.9974 23.5422C21.2208 23.3629 22.3177 23.0008 23.3372 22.4383C24.9052 21.577 26.329 20.2551 27.3626 18.7082C27.8197 18.0227 27.8197 17.9734 27.3626 17.2879C26.9126 16.6129 26.5083 16.1207 25.8861 15.4984C24.1986 13.8004 22.3001 12.809 20.1204 12.475C19.6599 12.4047 18.3767 12.359 17.9759 12.3941ZM19.6001 13.5508C21.2243 13.723 22.8134 14.398 24.195 15.4984C24.9228 16.082 25.8157 17.0277 26.3044 17.7309L26.4872 17.998L26.3431 18.209C25.7384 19.102 24.6872 20.1672 23.7591 20.8316C22.0329 22.0691 19.9587 22.6527 17.9548 22.4629C15.9263 22.2695 14.0771 21.373 12.4423 19.791C11.9958 19.3586 11.4193 18.6906 11.124 18.2617L10.9411 17.998L11.1169 17.7414C11.4615 17.2457 11.7743 16.8836 12.365 16.2895C13.2157 15.4422 13.9892 14.8762 14.9736 14.384C16.4079 13.6668 18.0005 13.3785 19.6001 13.5508Z" fill="black" fill-opacity="0.87"/>
<path d="M18.1274 14.6757C17.4207 14.8023 16.8442 15.1117 16.3239 15.639C15.8703 16.096 15.5785 16.6164 15.4203 17.2456C15.336 17.5796 15.336 18.4163 15.4203 18.7503C15.5785 19.3796 15.8703 19.8999 16.3239 20.357C16.9461 20.9898 17.6774 21.3167 18.5563 21.3624C19.5301 21.4117 20.3809 21.0777 21.0875 20.371C21.5692 19.8894 21.8469 19.4007 22.0086 18.7503C22.093 18.4163 22.093 17.5796 22.0086 17.2456C21.9207 16.8976 21.7555 16.5074 21.5692 16.205C21.3512 15.8464 20.8449 15.3507 20.4758 15.1222C19.7867 14.7003 18.9114 14.5316 18.1274 14.6757ZM19.1891 15.8007C19.9485 15.9589 20.627 16.5847 20.8696 17.3476C20.9785 17.6956 20.9785 18.3003 20.8696 18.6484C20.6481 19.348 20.0645 19.9316 19.3649 20.1531C19.1645 20.2163 19.0379 20.2304 18.6969 20.2304C18.3313 20.2269 18.2399 20.2128 18.0184 20.1355C17.6492 20.0019 17.3996 19.8437 17.1149 19.5624C16.2465 18.6976 16.2535 17.2949 17.1324 16.416C17.6774 15.8675 18.4332 15.6425 19.1891 15.8007Z" fill="black" fill-opacity="0.87"/>
</g>
<defs>
<clipPath id="clip0_1425_83293">
<rect width="18" height="18" fill="white" transform="translate(9.71448 9)"/>
</clipPath>
</defs>
</svg>
