<svg width="17" height="17" viewBox="0 0 17 17" fill="none" xmlns="http://www.w3.org/2000/svg">
<path d="M7.71811 0.0850105C5.9876 0.187584 4.87583 0.415892 4.00892 0.842731C3.55892 1.06442 3.2512 1.32913 3.11223 1.61369L3.01958 1.80229V6.53391V11.2655L3.11223 11.4541C3.41003 12.0596 4.41922 12.5361 5.96444 12.8008C6.42106 12.8802 7.24826 12.9696 7.5262 12.9696C7.63208 12.9696 7.77436 12.9795 7.84385 12.9894L7.96628 13.0126V13.5618V14.1111L7.79422 14.1938C7.56922 14.2964 7.24164 14.624 7.13907 14.849L7.05635 15.021H4.97179H2.88723L2.77473 14.806C2.57951 14.4221 2.16922 14.1343 1.71922 14.0549C0.749731 13.8894 -0.140342 14.7696 0.0184812 15.7357C0.127672 16.3876 0.61407 16.874 1.26922 16.9799C1.85819 17.0791 2.50341 16.7582 2.77473 16.2288L2.88723 16.0137H4.97179H7.05635L7.16885 16.2288C7.36738 16.6126 7.77436 16.9005 8.23098 16.9799C8.83319 17.0824 9.48172 16.7648 9.75635 16.2288L9.86885 16.0137H11.9534H14.038L14.1505 16.2288C14.3457 16.6126 14.756 16.9005 15.206 16.9799C16.1755 17.1453 17.0655 16.2652 16.9067 15.299C16.7975 14.6471 16.3111 14.1607 15.656 14.0549C15.067 13.9556 14.4218 14.2766 14.1505 14.806L14.038 15.021H11.9534H9.86885L9.78613 14.8457C9.68356 14.624 9.35598 14.2964 9.13429 14.1938L8.95892 14.1111V13.5618V13.0126L9.08466 12.9894C9.15084 12.9795 9.29311 12.9696 9.399 12.9696C9.50488 12.9696 9.80929 12.9464 10.0773 12.9199C12.0825 12.7148 13.4589 12.1755 13.813 11.4541L13.9056 11.2655V6.53391V1.80229L13.813 1.61369C13.4523 0.882437 12.0692 0.343098 10.0409 0.147877C9.5512 0.0982456 8.11517 0.0618477 7.71811 0.0850105ZM9.38907 1.09089C10.9773 1.18685 12.3571 1.53097 12.8302 1.94788L12.9461 2.05045L12.8302 2.15302C12.3306 2.5931 10.931 2.92398 9.20708 3.01663C7.06958 3.12913 4.76333 2.73869 4.09495 2.15302L3.97914 2.05045L4.09495 1.94788C4.78319 1.34236 7.16885 0.955231 9.38907 1.09089ZM4.19753 3.35413C4.49201 3.48317 5.07767 3.66185 5.5012 3.74788C6.43098 3.9431 7.23172 4.01589 8.4626 4.01589C9.69348 4.01589 10.4942 3.9431 11.424 3.74788C11.8475 3.66185 12.4332 3.48317 12.7277 3.35413C12.8236 3.31111 12.9097 3.27472 12.9163 3.27472C12.9229 3.27472 12.9295 3.67177 12.9295 4.15486V5.03501L12.8236 5.13427C12.367 5.56111 10.9244 5.90523 9.20708 5.99457C7.07951 6.10707 4.71701 5.7067 4.10157 5.13427L3.99569 5.03501V4.15486C3.99569 3.67177 4.00231 3.27472 4.00892 3.27472C4.01554 3.27472 4.10157 3.31111 4.19753 3.35413ZM4.19753 6.33207C4.49201 6.46111 5.07767 6.63979 5.5012 6.72582C6.43098 6.92104 7.23172 6.99383 8.4626 6.99383C9.69348 6.99383 10.4942 6.92104 11.424 6.72582C11.8475 6.63979 12.4332 6.46111 12.7277 6.33207C12.8236 6.28905 12.9097 6.25266 12.9163 6.25266C12.9229 6.25266 12.9295 6.64972 12.9295 7.1328V8.01295L12.8236 8.11222C12.2082 8.68464 9.84569 9.08501 7.71811 8.97251C6.00083 8.88317 4.55819 8.53905 4.10157 8.11222L3.99569 8.01295V7.1328C3.99569 6.64972 4.00231 6.25266 4.00892 6.25266C4.01554 6.25266 4.10157 6.28905 4.19753 6.33207ZM4.19753 9.31001C4.49201 9.43905 5.07767 9.61773 5.5012 9.70376C6.43098 9.89898 7.23172 9.97177 8.4626 9.97177C9.69348 9.97177 10.4942 9.89898 11.424 9.70376C11.8475 9.61773 12.4332 9.43905 12.7277 9.31001C12.8236 9.267 12.9097 9.2306 12.9163 9.2306C12.9229 9.2306 12.9295 9.63427 12.9295 10.1273V11.024L12.8236 11.1232C12.2082 11.6957 9.84569 12.096 7.71811 11.9835C6.00083 11.8942 4.55819 11.5501 4.10157 11.1232L3.99569 11.024V10.1273C3.99569 9.63427 4.00231 9.2306 4.00892 9.2306C4.01554 9.2306 4.10157 9.267 4.19753 9.31001ZM1.7126 15.0872C1.8615 15.1633 1.9773 15.3519 1.9773 15.5174C1.9773 15.7688 1.73245 16.0137 1.48098 16.0137C1.22951 16.0137 0.984658 15.7688 0.984658 15.5174C0.984658 15.3585 1.10047 15.1633 1.24275 15.0905C1.40157 15.0045 1.55047 15.0045 1.7126 15.0872ZM8.69422 15.0872C8.84311 15.1633 8.95892 15.3519 8.95892 15.5174C8.95892 15.7688 8.71407 16.0137 8.4626 16.0137C8.21113 16.0137 7.96628 15.7688 7.96628 15.5174C7.96628 15.3585 8.08208 15.1633 8.22436 15.0905C8.38319 15.0045 8.53208 15.0045 8.69422 15.0872ZM15.6758 15.0872C15.8247 15.1633 15.9405 15.3519 15.9405 15.5174C15.9405 15.7688 15.6957 16.0137 15.4442 16.0137C15.1927 16.0137 14.9479 15.7688 14.9479 15.5174C14.9479 15.3585 15.0637 15.1633 15.206 15.0905C15.3648 15.0045 15.5137 15.0045 15.6758 15.0872Z" fill="#6F6E77"/>
</svg>
