<svg width="16" height="16" viewBox="0 0 16 16" fill="none" xmlns="http://www.w3.org/2000/svg">
<path d="M3.3335 12.0006H6.16016C6.2479 12.0011 6.33488 11.9843 6.4161 11.9511C6.49733 11.9179 6.5712 11.8691 6.6335 11.8073L11.2468 7.18728L13.1402 5.33394C13.2026 5.27197 13.2522 5.19823 13.2861 5.11699C13.3199 5.03576 13.3374 4.94862 13.3374 4.86061C13.3374 4.7726 13.3199 4.68547 13.2861 4.60423C13.2522 4.52299 13.2026 4.44925 13.1402 4.38728L10.3135 1.52728C10.2515 1.46479 10.1778 1.4152 10.0965 1.38135C10.0153 1.3475 9.92817 1.33008 9.84016 1.33008C9.75216 1.33008 9.66502 1.3475 9.58378 1.38135C9.50254 1.4152 9.42881 1.46479 9.36683 1.52728L7.48683 3.41394L2.86016 8.03394C2.79838 8.09624 2.74949 8.17011 2.71632 8.25134C2.68314 8.33256 2.66632 8.41954 2.66683 8.50728V11.3339C2.66683 11.5108 2.73707 11.6803 2.86209 11.8053C2.98712 11.9304 3.15669 12.0006 3.3335 12.0006ZM9.84016 2.94061L11.7268 4.82728L10.7802 5.77394L8.8935 3.88728L9.84016 2.94061ZM4.00016 8.78061L7.9535 4.82728L9.84016 6.71394L5.88683 10.6673H4.00016V8.78061ZM14.0002 13.3339H2.00016C1.82335 13.3339 1.65378 13.4042 1.52876 13.5292C1.40373 13.6542 1.3335 13.8238 1.3335 14.0006C1.3335 14.1774 1.40373 14.347 1.52876 14.472C1.65378 14.597 1.82335 14.6673 2.00016 14.6673H14.0002C14.177 14.6673 14.3465 14.597 14.4716 14.472C14.5966 14.347 14.6668 14.1774 14.6668 14.0006C14.6668 13.8238 14.5966 13.6542 14.4716 13.5292C14.3465 13.4042 14.177 13.3339 14.0002 13.3339Z" fill="#6E56CF"/>
</svg>
