<svg width="32" height="32" viewBox="0 0 32 32" fill="none" xmlns="http://www.w3.org/2000/svg">
<path d="M15.9938 22.2352V18.8525" stroke="#130F26" stroke-width="2" stroke-linecap="round" stroke-linejoin="round"/>
<path fill-rule="evenodd" clip-rule="evenodd" d="M24.2537 7.10645C26.507 7.10645 28.3203 8.93311 28.3203 11.1864V15.7731C25.0403 17.6931 20.707 18.8531 15.987 18.8531C11.267 18.8531 6.94699 17.6931 3.66699 15.7731V11.1731C3.66699 8.91978 5.49366 7.10645 7.74699 7.10645H24.2537Z" stroke="#130F26" stroke-width="2" stroke-linecap="round" stroke-linejoin="round"/>
<path d="M20.6605 7.10068V6.61268C20.6605 4.98602 19.3405 3.66602 17.7138 3.66602H14.2738C12.6471 3.66602 11.3271 4.98602 11.3271 6.61268V7.10068" stroke="#130F26" stroke-width="2" stroke-linecap="round" stroke-linejoin="round"/>
<path d="M3.69922 20.6436L3.95122 23.9889C4.12189 26.2436 6.00055 27.9862 8.26055 27.9862H23.7259C25.9859 27.9862 27.8646 26.2436 28.0352 23.9889L28.2872 20.6436" stroke="#130F26" stroke-width="2" stroke-linecap="round" stroke-linejoin="round"/>
</svg>
