<svg width="24" height="24" viewBox="0 0 24 24" fill="none" xmlns="http://www.w3.org/2000/svg">
<g opacity="0.6">
<path d="M9.675 3.01211H9.68819L9.68748 2.99893C9.65435 2.38605 9.86951 1.83516 10.3341 1.34571C10.7985 0.856415 11.3536 0.612109 12 0.612109C12.6464 0.612109 13.2015 0.856415 13.6659 1.34571C14.1305 1.83516 14.3456 2.38605 14.3125 2.99893L14.3118 3.01211H14.325H19.5C19.8965 3.01211 20.2433 3.16063 20.5412 3.45845C20.839 3.75626 20.9875 4.10314 20.9875 4.49961V19.4996C20.9875 19.8961 20.839 20.243 20.5412 20.5408C20.2433 20.8386 19.8965 20.9871 19.5 20.9871H4.5C4.10353 20.9871 3.75665 20.8386 3.45884 20.5408C3.16103 20.243 3.0125 19.8961 3.0125 19.4996V4.49961C3.0125 4.10314 3.16103 3.75626 3.45884 3.45845C3.75665 3.16063 4.10353 3.01211 4.5 3.01211H9.675ZM4.4875 18.5746V18.6034L4.50853 18.5837C5.50752 17.6514 6.63885 16.8979 7.90257 16.3235C9.16581 15.7493 10.5307 15.4621 11.9974 15.4621C13.4641 15.4621 14.8299 15.7493 16.0948 16.3235C17.3603 16.8979 18.4925 17.6514 19.4915 18.5837L19.5125 18.6034V18.5746V4.49961V4.48711H19.5H4.5H4.4875V4.49961V18.5746ZM5.8625 19.4996V19.5121H5.875H18.125H18.1375V19.4996V19.2746H18.1443L18.1331 19.2651C17.2321 18.4976 16.2642 17.9176 15.2294 17.5254C14.1947 17.1332 13.1182 16.9371 12 16.9371C10.8818 16.9371 9.80533 17.1332 8.77057 17.5254C7.7358 17.9176 6.76791 18.4976 5.86689 19.2651L5.8625 19.2599V19.2746V19.4996ZM12 3.46211C12.2197 3.46211 12.4021 3.39016 12.5463 3.24595C12.6906 3.10173 12.7625 2.91929 12.7625 2.69961C12.7625 2.47993 12.6906 2.29748 12.5463 2.15327C12.4021 2.00906 12.2197 1.93711 12 1.93711C11.7803 1.93711 11.5979 2.00906 11.4537 2.15327C11.3094 2.29748 11.2375 2.47993 11.2375 2.69961C11.2375 2.91929 11.3094 3.10173 11.4537 3.24595C11.5979 3.39016 11.7803 3.46211 12 3.46211ZM14.4912 12.4658C13.8269 13.13 13.0134 13.4621 12.05 13.4621C11.0866 13.4621 10.2731 13.13 9.60884 12.4658C8.94458 11.8015 8.6125 10.9881 8.6125 10.0246C8.6125 9.06116 8.94458 8.24771 9.60884 7.58345C10.2731 6.91919 11.0866 6.58711 12.05 6.58711C13.0134 6.58711 13.8269 6.91919 14.4912 7.58345C15.1554 8.24771 15.4875 9.06116 15.4875 10.0246C15.4875 10.9881 15.1554 11.8015 14.4912 12.4658ZM10.6599 11.4147C11.0414 11.7962 11.5051 11.9871 12.05 11.9871C12.5949 11.9871 13.0586 11.7962 13.4401 11.4147C13.8216 11.0332 14.0125 10.5696 14.0125 10.0246C14.0125 9.47966 13.8216 9.01606 13.4401 8.63452C13.0586 8.25298 12.5949 8.06211 12.05 8.06211C11.5051 8.06211 11.0414 8.25298 10.6599 8.63452C10.2784 9.01606 10.0875 9.47966 10.0875 10.0246C10.0875 10.5696 10.2784 11.0332 10.6599 11.4147Z" fill="#2D2D2D" stroke="#2D2D2D" stroke-width="0.025"/>
</g>
</svg>
