<svg width="24" height="24" viewBox="0 0 24 24" fill="none" xmlns="http://www.w3.org/2000/svg">
<path d="M5.41 3.5H4.20142L5.05675 4.35386L10.8567 10.1439L10.8579 10.145C10.9048 10.1915 10.942 10.2468 10.9673 10.3077C10.9927 10.3686 11.0058 10.434 11.0058 10.5C11.0058 10.566 10.9927 10.6314 10.9673 10.6923C10.942 10.7532 10.9048 10.8085 10.8579 10.855L10.855 10.8579C10.8085 10.9048 10.7532 10.942 10.6923 10.9673C10.6314 10.9927 10.566 11.0058 10.5 11.0058C10.434 11.0058 10.3686 10.9927 10.3077 10.9673C10.2468 10.942 10.1915 10.9048 10.145 10.8579L10.1439 10.8568L4.35386 5.05675L3.5 4.20142V5.41V7C3.5 7.13261 3.44732 7.25979 3.35355 7.35355C3.25979 7.44732 3.13261 7.5 3 7.5C2.86739 7.5 2.74021 7.44732 2.64645 7.35355C2.55268 7.25979 2.5 7.13261 2.5 7V3.00354C2.5011 2.93906 2.51467 2.87539 2.53996 2.81604L2.53998 2.81605L2.54176 2.81176C2.5925 2.68959 2.68959 2.5925 2.81176 2.54176L2.81177 2.54178L2.81604 2.53996C2.87539 2.51467 2.93906 2.5011 3.00354 2.5H7C7.13261 2.5 7.25979 2.55268 7.35355 2.64645C7.44732 2.74021 7.5 2.86739 7.5 3C7.5 3.13261 7.44732 3.25979 7.35355 3.35355C7.25979 3.44732 7.13261 3.5 7 3.5H5.41ZM19.6461 18.9432L20.5 19.7986V18.59V17C20.5 16.8674 20.5527 16.7402 20.6464 16.6464C20.7402 16.5527 20.8674 16.5 21 16.5C21.1326 16.5 21.2598 16.5527 21.3536 16.6464C21.4473 16.7402 21.5 16.8674 21.5 17V20.9964C21.4989 21.0609 21.4853 21.1246 21.46 21.1839L21.4582 21.1882C21.4075 21.3104 21.3104 21.4075 21.1882 21.4582L21.1882 21.4582L21.184 21.46C21.1246 21.4853 21.0609 21.4989 20.9964 21.5H17C16.8674 21.5 16.7402 21.4473 16.6464 21.3536C16.5527 21.2598 16.5 21.1326 16.5 21C16.5 20.8674 16.5527 20.7402 16.6464 20.6464C16.7402 20.5527 16.8674 20.5 17 20.5H18.59H19.7986L18.9432 19.6461L13.1436 13.8564C13.049 13.7619 12.9959 13.6337 12.9959 13.5C12.9959 13.3663 13.049 13.2381 13.1436 13.1436C13.2381 13.049 13.3663 12.9959 13.5 12.9959C13.6337 12.9959 13.7619 13.049 13.8564 13.1436L19.6461 18.9432Z" fill="#277BC0" stroke="#277BC0"/>
</svg>
