<svg width="32" height="32" viewBox="0 0 32 32" fill="none" xmlns="http://www.w3.org/2000/svg">
<path d="M12.67 18H8C6.9 18 6 18.9 6 20V26H12.67V18Z" stroke="#292D32" stroke-width="1.5" stroke-miterlimit="10" stroke-linecap="round" stroke-linejoin="round"/>
<path d="M17.3302 14H14.6602C13.5602 14 12.6602 14.9 12.6602 16V26H19.3302V16C19.3302 14.9 18.4402 14 17.3302 14Z" stroke="#292D32" stroke-width="1.5" stroke-miterlimit="10" stroke-linecap="round" stroke-linejoin="round"/>
<path d="M24.0001 21H19.3301V26H26.0001V23C26.0001 21.9 25.1001 21 24.0001 21Z" stroke="#292D32" stroke-width="1.5" stroke-miterlimit="10" stroke-linecap="round" stroke-linejoin="round"/>
<path d="M16.5202 6.06982L17.0502 7.12982C17.1202 7.27982 17.3102 7.41982 17.4702 7.43982L18.4302 7.59982C19.0402 7.69982 19.1902 8.1498 18.7502 8.5798L18.0002 9.3298C17.8702 9.4598 17.8002 9.69981 17.8402 9.86981L18.0502 10.7898C18.2202 11.5198 17.8302 11.7998 17.1902 11.4198L16.2902 10.8898C16.1302 10.7898 15.8602 10.7898 15.7002 10.8898L14.8002 11.4198C14.1602 11.7998 13.7702 11.5198 13.9402 10.7898L14.1502 9.86981C14.1902 9.69981 14.1202 9.4498 13.9902 9.3298L13.2502 8.58981C12.8102 8.14981 12.9502 7.7098 13.5702 7.6098L14.5302 7.44983C14.6902 7.41983 14.8802 7.27983 14.9502 7.13983L15.4802 6.0798C15.7702 5.4998 16.2302 5.49982 16.5202 6.06982Z" stroke="#292D32" stroke-width="1.5" stroke-linecap="round" stroke-linejoin="round"/>
</svg>
