<svg width="49" height="48" viewBox="0 0 49 48" fill="none" xmlns="http://www.w3.org/2000/svg">
<path d="M7.84863 20.2882C7.84863 20.199 7.93783 20.1098 7.93783 20.1098C8.20541 19.3963 8.91895 18.8611 9.7217 18.8611C11.5948 18.8611 13.4678 18.8611 15.3409 18.8611C16.4112 18.8611 17.214 19.6638 17.214 20.8234C17.214 22.3397 17.214 23.8559 17.214 25.3722C17.214 25.729 17.214 26.0858 17.214 26.4426C17.1248 27.4237 16.4112 28.1372 15.3409 28.2264C14.8949 28.2264 14.449 28.2264 14.003 28.2264C14.003 29.0292 14.003 29.8319 14.003 30.6347C14.3598 30.6347 14.7165 30.6347 15.1625 30.6347C16.5004 30.6347 17.214 31.3482 17.214 32.6861C17.214 33.0429 17.214 33.3996 17.214 33.8456C18.0167 33.8456 18.8194 33.8456 19.6222 33.8456C19.6222 33.3996 19.6222 32.9537 19.6222 32.5969C19.6222 31.5266 20.3357 30.813 21.406 30.7238C21.852 30.7238 22.3872 30.7238 22.8331 30.7238C22.8331 29.9211 22.8331 29.1184 22.8331 28.3156C22.3872 28.3156 22.0304 28.3156 21.6736 28.3156C20.4249 28.3156 19.6222 27.3345 19.6222 26.2642C19.6222 24.4803 19.6222 22.6964 19.6222 20.9126C19.6222 19.753 20.4249 18.9503 21.5844 18.9503C23.3683 18.9503 25.1522 18.9503 27.0252 18.9503C28.1848 18.9503 28.9875 19.753 28.9875 20.9126C28.9875 21.3585 28.9875 21.7153 28.9875 22.1613C29.7902 22.1613 30.593 22.1613 31.4849 22.1613C31.4849 21.8045 31.4849 21.4477 31.4849 21.0018C31.4849 19.6638 32.2877 18.9503 33.5364 18.9503C33.8931 18.9503 34.2499 18.9503 34.6067 18.9503C34.6067 18.1476 34.6067 17.3448 34.6067 16.5421C34.2499 16.5421 33.8039 16.5421 33.4472 16.5421C32.1093 16.5421 31.3957 15.8285 31.3957 14.4906C31.3957 12.7068 31.3957 11.0121 31.3957 9.22821C31.3957 7.89031 32.3768 7.17676 33.4472 7.17676C35.231 7.26595 37.0149 7.17676 38.7988 7.17676C39.9583 7.17676 40.761 7.9795 40.761 9.04982C40.761 10.9229 40.761 12.7068 40.761 14.5798C40.761 15.6501 40.0475 16.3637 38.9772 16.4529C38.5312 16.4529 37.996 16.4529 37.5501 16.4529C37.5501 17.2556 37.5501 18.0584 37.5501 18.8611C37.9068 18.8611 38.3528 18.8611 38.7096 18.8611C39.9583 18.8611 40.761 19.6638 40.761 20.8234C40.761 22.6072 40.761 24.3911 40.761 26.175C40.761 27.3345 39.9583 28.1372 38.7988 28.1372C38.2636 28.1372 37.8176 28.1372 37.2825 28.1372C36.9257 28.1372 36.6581 27.9588 36.6581 27.6913C36.6581 27.4237 36.9257 27.2453 37.2825 27.1561C37.7285 27.1561 38.2636 27.1561 38.7096 27.1561C39.4231 27.1561 39.7799 26.7993 39.7799 26.0858C39.7799 24.3019 39.7799 22.6072 39.7799 20.8234C39.7799 20.1098 39.4231 19.753 38.7096 19.753C36.9257 19.753 35.1418 19.753 33.4472 19.753C32.7336 19.753 32.3768 20.1098 32.3768 20.8234C32.3768 22.6072 32.3768 24.3911 32.3768 26.175C32.3768 26.8885 32.7336 27.1561 33.358 27.1561C33.8039 27.1561 34.3391 27.1561 34.7851 27.1561C35.231 27.1561 35.4094 27.3345 35.4094 27.6913C35.4094 27.9588 35.1418 28.1372 34.7851 28.1372C34.3391 28.1372 33.8039 28.1372 33.358 28.1372C32.1985 28.1372 31.3957 27.3345 31.3957 26.175C31.3957 25.729 31.3957 25.3722 31.3957 24.9263C30.593 24.9263 29.7902 24.9263 28.8983 24.9263C28.8983 25.283 28.8983 25.6398 28.8983 26.0858C28.8983 27.4237 28.0956 28.1372 26.8468 28.1372C26.4901 28.1372 26.1333 28.1372 25.7765 28.1372C25.7765 28.94 25.7765 29.7427 25.7765 30.5455C26.1333 30.5455 26.5793 30.5455 26.936 30.5455C28.1847 30.5455 28.9875 31.259 28.9875 32.5969C28.9875 34.2916 28.9875 35.8971 28.9875 37.5917C28.9875 38.7513 28.6307 39.554 27.4712 39.9108C25.3306 39.9108 23.1899 39.9108 21.1385 39.9108C21.1385 39.9108 21.1385 39.9108 21.0493 39.9108C19.9789 39.554 19.6222 39.0188 19.6222 37.8593C19.6222 37.5026 19.6222 37.1458 19.6222 36.789C18.8194 36.789 18.0167 36.789 17.214 36.789C17.214 37.235 17.214 37.5917 17.214 38.0377C17.214 38.7513 16.9464 39.3756 16.322 39.7324C16.1436 39.8216 15.9652 39.9108 15.7869 40C13.6462 40 11.5056 40 9.45412 40C8.74057 39.7324 8.20541 39.2864 7.93783 38.4837C7.93783 37.9485 7.93783 37.3242 7.93783 36.789C8.11621 36.6106 8.2946 36.4322 8.56218 36.5214C8.82976 36.6106 8.91895 36.8782 8.82976 37.1458C8.82976 37.4134 8.82976 37.6809 8.82976 37.9485C8.82976 38.6621 9.18654 39.0188 9.90008 39.0188C11.684 39.0188 13.4678 39.0188 15.2517 39.0188C15.876 39.0188 16.2328 38.6621 16.2328 38.0377C16.2328 36.2538 16.2328 34.47 16.2328 32.6861C16.2328 31.9726 15.876 31.705 15.2517 31.705C13.4678 31.705 11.684 31.705 9.90008 31.705C9.18654 31.705 8.82976 32.0617 8.82976 32.7753C8.82976 33.3997 8.82976 34.1132 8.82976 34.7376C8.82976 35.0051 8.74057 35.1835 8.47299 35.2727C8.20541 35.3619 8.02702 35.1835 7.84863 35.0051C7.84863 34.1132 7.84863 33.1321 7.84863 32.2401C8.2946 30.9022 8.74057 30.6347 10.1677 30.6347C10.4352 30.6347 10.7028 30.6347 11.0596 30.6347C11.0596 29.8319 11.0596 29.0292 11.0596 28.2264C10.6136 28.2264 10.1677 28.2264 9.81089 28.2264C8.91896 28.2264 8.2946 27.7805 8.02702 26.9777C8.02702 26.8885 7.93783 26.8885 7.93783 26.7993C7.84863 24.5695 7.84863 22.4288 7.84863 20.2882ZM16.1436 23.4992C16.1436 22.6072 16.1436 21.7153 16.1436 20.7342C16.1436 20.1098 15.7869 19.753 15.2517 19.753C13.3786 19.753 11.5948 19.753 9.7217 19.753C9.09734 19.753 8.74057 20.1098 8.74057 20.7342C8.74057 22.518 8.74057 24.3019 8.74057 26.0858C8.74057 26.7101 9.09734 27.0669 9.7217 27.0669C11.5948 27.0669 13.3786 27.0669 15.2517 27.0669C15.876 27.0669 16.2328 26.7101 16.2328 26.0858C16.1436 25.283 16.1436 24.3911 16.1436 23.4992ZM27.9172 23.4992C27.9172 22.6072 27.9172 21.7153 27.9172 20.7342C27.9172 20.1098 27.5604 19.753 27.0252 19.753C25.1522 19.753 23.3683 19.753 21.4952 19.753C20.8709 19.753 20.6033 20.1098 20.6033 20.7342C20.6033 22.518 20.6033 24.3911 20.6033 26.175C20.6033 26.7993 20.9601 27.1561 21.4952 27.1561C23.3683 27.1561 25.1522 27.1561 27.0252 27.1561C27.6496 27.1561 27.9172 26.7993 27.9172 26.175C27.9172 25.283 27.9172 24.3911 27.9172 23.4992ZM36.0338 15.3826C36.9257 15.3826 37.8176 15.3826 38.7096 15.3826C39.3339 15.3826 39.6907 15.0258 39.6907 14.4014C39.6907 12.6176 39.6907 10.8337 39.6907 9.04982C39.6907 8.42547 39.3339 8.06869 38.7096 8.06869C36.9257 8.06869 35.1418 8.06869 33.358 8.06869C32.7336 8.06869 32.3768 8.42547 32.3768 9.04982C32.3768 10.8337 32.3768 12.7068 32.3768 14.4906C32.3768 15.115 32.7336 15.4718 33.358 15.4718C34.2499 15.3826 35.1418 15.3826 36.0338 15.3826ZM24.2602 31.6158C23.3683 31.6158 22.3872 31.6158 21.4952 31.6158C20.9601 31.6158 20.5141 31.9726 20.5141 32.5969C20.5141 34.47 20.5141 36.2538 20.5141 38.1269C20.5141 38.6621 20.8709 39.108 21.406 39.108C23.2791 39.108 25.063 39.108 26.936 39.108C27.4712 39.108 27.9172 38.7513 27.9172 38.1269C27.9172 36.2538 27.9172 34.47 27.9172 32.5969C27.9172 31.9726 27.5604 31.6158 26.936 31.6158C26.0441 31.6158 25.1522 31.6158 24.2602 31.6158ZM31.3065 23.0532C30.5038 23.0532 29.701 23.0532 28.8983 23.0532C28.8983 23.41 28.8983 23.6776 28.8983 24.0343C29.701 24.0343 30.5038 24.0343 31.3065 24.0343C31.3065 23.6776 31.3065 23.3208 31.3065 23.0532ZM36.4797 18.7719C36.4797 17.9692 36.4797 17.1664 36.4797 16.3637C36.123 16.3637 35.8554 16.3637 35.5878 16.3637C35.5878 17.1664 35.5878 17.9692 35.5878 18.7719C35.9446 18.7719 36.2122 18.7719 36.4797 18.7719ZM12.9327 30.6347C12.9327 29.8319 12.9327 29.0292 12.9327 28.2264C12.5759 28.2264 12.3083 28.2264 11.9515 28.2264C11.9515 29.0292 11.9515 29.8319 11.9515 30.6347C12.3083 30.6347 12.5759 30.6347 12.9327 30.6347ZM24.7062 28.2264C24.3494 28.2264 24.0818 28.2264 23.7251 28.2264C23.7251 29.0292 23.7251 29.8319 23.7251 30.6347C24.0818 30.6347 24.3494 30.6347 24.7062 30.6347C24.7062 29.7427 24.7062 29.0292 24.7062 28.2264ZM19.533 35.8079C19.533 35.4511 19.533 35.1835 19.533 34.8267C18.7302 34.8267 17.9275 34.8267 17.1248 34.8267C17.1248 35.1835 17.1248 35.4511 17.1248 35.8079C18.0167 35.8079 18.7302 35.8079 19.533 35.8079Z" fill="black" fill-opacity="0.87"/>
<path d="M32.9098 39.9141C32.6423 39.7358 32.2855 39.6466 32.0179 39.4682C31.5719 39.1114 31.3936 38.6654 31.3936 38.0411C31.3936 36.168 31.3936 34.295 31.3936 32.4219C31.3936 31.3516 32.1963 30.5488 33.2666 30.5488C35.1397 30.5488 37.0127 30.5488 38.8858 30.5488C40.0453 30.5488 40.7589 31.3516 40.7589 32.5111C40.7589 34.295 40.7589 36.0788 40.7589 37.8627C40.7589 38.8438 40.3129 39.4682 39.3318 39.825C39.3318 39.825 39.2426 39.825 39.2426 39.9141C37.1019 39.9141 34.9613 39.9141 32.9098 39.9141ZM32.3747 35.2761C32.3747 36.168 32.3747 37.06 32.3747 37.9519C32.3747 38.5762 32.7315 38.933 33.3558 38.933C35.1397 38.933 36.9236 38.933 38.7074 38.933C39.3318 38.933 39.6885 38.5762 39.6885 37.9519C39.6885 36.168 39.6885 34.3842 39.6885 32.6003C39.6885 31.9759 39.3318 31.6191 38.7074 31.6191C36.9236 31.6191 35.0505 31.6191 33.2666 31.6191C32.6423 31.6191 32.2855 31.9759 32.2855 32.6003C32.3747 33.4922 32.3747 34.3842 32.3747 35.2761Z" fill="black" fill-opacity="0.87"/>
<path d="M7.84538 8.51629C7.84538 8.3379 7.93457 8.15952 8.02377 7.98113C8.38054 7.35677 8.9157 7 9.62925 7C11.5023 7 13.3754 7 15.3376 7C16.3188 7 17.0323 7.71355 17.1215 8.69468C17.1215 9.22984 17.1215 9.765 17.1215 10.3002C17.1215 10.6569 16.9431 10.8353 16.5863 10.8353C16.3188 10.8353 16.1404 10.6569 16.1404 10.3002C16.1404 9.85419 16.1404 9.40822 16.1404 8.96226C16.1404 8.4271 15.7836 7.98113 15.2484 7.98113C13.3754 7.98113 11.5023 7.98113 9.62925 7.98113C9.09409 7.98113 8.73731 8.3379 8.73731 8.87306C8.73731 10.7461 8.73731 12.6192 8.73731 14.4923C8.73731 15.0274 9.09409 15.3842 9.62925 15.3842C11.5023 15.3842 13.3754 15.3842 15.1592 15.3842C15.6944 15.3842 16.0512 15.0274 16.0512 14.4923C16.0512 13.9571 16.0512 13.3327 16.0512 12.7976C16.0512 12.4408 16.2296 12.1732 16.4972 12.1732C16.7647 12.1732 17.0323 12.3516 17.0323 12.7084C17.0323 13.3327 17.0323 14.0463 17.0323 14.6706C16.9431 15.5626 16.2296 16.2761 15.3376 16.3653C14.4457 16.4545 13.643 16.3653 12.751 16.3653C11.8591 16.3653 10.878 16.3653 9.98602 16.3653C8.64812 16.3653 8.20215 16.0977 7.66699 14.849C7.84538 12.7976 7.84538 10.6569 7.84538 8.51629Z" fill="black" fill-opacity="0.87"/>
<path d="M19.5281 11.7273C19.5281 10.8353 19.5281 9.94338 19.5281 9.05145C19.4389 7.89193 20.42 7 21.4904 7C23.2742 7 25.0581 7 26.842 7C28.0907 7 28.8934 7.71355 28.8934 9.05145C28.8934 10.8353 28.8934 12.6192 28.8934 14.3139C28.8934 14.4031 28.8934 14.5814 28.8934 14.6706C28.8042 15.5626 28.0907 16.2761 27.2879 16.2761C26.7528 16.2761 26.2176 16.2761 25.6825 16.2761C24.3446 16.2761 23.0067 16.2761 21.6688 16.2761C20.3308 16.2761 19.5281 15.295 19.6173 14.2247C19.6173 13.5111 19.5281 12.6192 19.5281 11.7273ZM24.2554 15.3842C25.1473 15.3842 26.0392 15.3842 26.9312 15.3842C27.5555 15.3842 27.9123 15.0274 27.9123 14.4031C27.9123 12.6192 27.9123 10.7461 27.9123 8.96226C27.9123 8.3379 27.5555 7.98113 26.9312 7.98113C25.1473 7.98113 23.3634 7.98113 21.5796 7.98113C20.9552 7.98113 20.5984 8.3379 20.5984 8.96226C20.5984 10.7461 20.5984 12.53 20.5984 14.3139C20.5984 14.9382 20.9552 15.295 21.5796 15.295C22.4715 15.3842 23.3634 15.3842 24.2554 15.3842Z" fill="black" fill-opacity="0.87"/>
<path d="M15.1586 11.7289C15.1586 12.264 15.1586 12.7992 15.1586 13.4235C15.1586 14.0479 14.8018 14.4047 14.1774 14.4939C13.0179 14.4939 11.8584 14.4939 10.6989 14.4939C10.0745 14.4939 9.71777 14.1371 9.71777 13.5127C9.71777 12.3532 9.71777 11.1937 9.71777 9.945C9.71777 9.40984 10.0745 8.96387 10.6989 8.96387C11.8584 8.96387 13.0179 8.96387 14.1774 8.96387C14.8018 8.96387 15.1586 9.40984 15.1586 9.945C15.1586 10.5694 15.1586 11.1937 15.1586 11.7289ZM14.1774 13.4235C14.1774 12.264 14.1774 11.1045 14.1774 9.945C13.0179 9.945 11.8584 9.945 10.6989 9.945C10.6989 11.1045 10.6989 12.264 10.6989 13.4235C11.9476 13.4235 13.0179 13.4235 14.1774 13.4235Z" fill="black" fill-opacity="0.87"/>
<path d="M33.3558 35.2735C33.3558 34.7383 33.3558 34.1139 33.3558 33.5788C33.3558 32.9544 33.7126 32.5977 34.3369 32.5977C35.4964 32.5977 36.5668 32.5977 37.7263 32.5977C38.3506 32.5977 38.7074 32.9544 38.7074 33.5788C38.7074 34.7383 38.7074 35.8978 38.7074 37.0573C38.7074 37.6817 38.3506 38.0385 37.7263 38.0385C36.5668 38.0385 35.4072 38.0385 34.2477 38.0385C33.6234 38.0385 33.2666 37.6817 33.2666 36.9681C33.3558 36.433 33.3558 35.8086 33.3558 35.2735ZM37.7263 36.9681C37.7263 35.8086 37.7263 34.6491 37.7263 33.4896C36.5668 33.4896 35.4072 33.4896 34.2477 33.4896C34.2477 34.6491 34.2477 35.8086 34.2477 36.9681C35.4964 36.9681 36.5668 36.9681 37.7263 36.9681Z" fill="black" fill-opacity="0.87"/>
<path d="M24.2569 14.4047C23.7217 14.4047 23.0973 14.4047 22.5622 14.4047C22.027 14.4047 21.5811 14.0479 21.5811 13.4235C21.5811 12.264 21.5811 11.1045 21.5811 9.945C21.5811 9.32064 21.9378 8.96387 22.5622 8.96387C23.7217 8.96387 24.8812 8.96387 26.0407 8.96387C26.6651 8.96387 27.0219 9.40983 27.0219 9.945C27.0219 11.1045 27.0219 12.1748 27.0219 13.3343C27.0219 13.9587 26.6651 14.3155 26.0407 14.3155C25.3272 14.4939 24.792 14.4047 24.2569 14.4047ZM25.9515 10.0342C24.792 10.0342 23.6325 10.0342 22.473 10.0342C22.473 11.1937 22.473 12.3532 22.473 13.5127C23.6325 13.5127 24.792 13.5127 25.9515 13.5127C25.9515 12.264 25.9515 11.1937 25.9515 10.0342Z" fill="black" fill-opacity="0.87"/>
</svg>
