<svg width="24" height="24" viewBox="0 0 24 24" fill="none" xmlns="http://www.w3.org/2000/svg">
<g clip-path="url(#clip0_3067_9425)">
<path d="M15.4241 0.134771C14.8661 0.367744 14.4487 0.833693 14.2002 1.48602C14.1252 1.68987 14.0267 1.87043 13.9845 1.8879C13.9423 1.90537 11.5227 2.5344 8.6061 3.29739C5.62851 4.0662 3.24644 4.7127 3.16673 4.77095C3.0917 4.82337 2.97916 4.95733 2.92289 5.06799C2.82911 5.23689 2.81504 5.33009 2.81504 5.88922V6.51825L1.62401 6.53572C0.292296 6.5532 0.273539 6.55902 0.0906636 6.99002C0.00625949 7.1764 0.00157038 7.3686 0.00157038 9.69834C0.00157038 13.0939 -0.115658 12.8726 1.67559 12.8726H2.81504V13.5832C2.81504 14.7131 2.89476 14.8296 3.8232 15.0742L4.43279 15.2315L4.45623 18.6096C4.48437 22.145 4.48437 22.1566 4.70007 22.6808C4.82198 22.9837 5.21587 23.4904 5.4597 23.6709C6.3225 24.2941 7.46665 24.0087 8.06685 23.0128C8.37634 22.5002 8.45605 22.1624 8.4795 21.2247L8.49825 20.4035L8.88745 20.3627C10.2192 20.2404 11.3868 19.1338 11.8463 17.567C11.9354 17.2583 11.9635 17.2117 12.0573 17.2292C12.1183 17.2409 12.5919 17.3574 13.1077 17.4913L14.0408 17.7359L14.1955 18.132C14.8379 19.7745 16.5917 20.1297 17.5951 18.8251C17.8812 18.4523 18.0078 18.1844 18.1203 17.701C18.1907 17.4098 18.1954 16.6118 18.186 9.66339L18.1719 1.95197L18.0219 1.55591C17.7405 0.822044 17.3419 0.367744 16.7511 0.123121C16.3525 -0.045784 15.8367 -0.039959 15.4241 0.134771ZM16.451 1.8646C16.5354 1.92867 16.6433 2.06263 16.6948 2.16747C16.7886 2.35385 16.7886 2.47616 16.7886 9.82065V17.2816L16.6808 17.4797C16.3807 18.0388 15.7101 17.9864 15.4757 17.3865C15.3819 17.1477 15.3819 17.0254 15.3819 9.82648C15.3819 1.66075 15.3631 2.17912 15.7054 1.8879C15.9164 1.71317 16.2306 1.70152 16.451 1.8646ZM13.9751 9.78571C13.9751 14.9461 13.9658 15.9013 13.9095 15.9013C13.8767 15.9013 13.5015 15.8081 13.0795 15.6974C12.6575 15.5868 11.3914 15.2606 10.2707 14.9694C9.15004 14.6782 7.33535 14.2006 6.24279 13.9152C5.15022 13.6298 4.24522 13.3968 4.23584 13.3968C4.23115 13.3968 4.22178 11.7835 4.22178 9.81483C4.22178 6.99585 4.23584 6.22703 4.28274 6.20956C4.31087 6.19209 5.88172 5.78438 7.76206 5.29514C9.64709 4.81172 11.7994 4.24676 12.545 4.04873C13.2952 3.8507 13.9189 3.6818 13.9423 3.67597C13.9611 3.67597 13.9751 6.41924 13.9751 9.78571ZM2.81504 9.69834V11.1253H2.11167H1.40831V9.69834V8.27138H2.11167H2.81504V9.69834ZM6.5804 15.7906L7.08214 15.9187V18.7668C7.08214 21.8537 7.08214 21.8712 6.82424 22.1217C6.54289 22.3954 6.04115 22.209 5.92393 21.7839C5.88172 21.6382 5.86766 20.7471 5.86766 18.5863L5.86297 15.5984L5.97082 15.6333C6.02709 15.6508 6.29906 15.7207 6.5804 15.7906ZM9.53924 16.5652C10.0691 16.705 10.5193 16.8332 10.5333 16.8506C10.5474 16.8681 10.5099 17.0312 10.4442 17.2059C10.3036 17.5845 9.95657 18.0621 9.67053 18.2718C9.40325 18.4698 8.94841 18.6387 8.6952 18.6387H8.48887V17.4738C8.48887 16.8332 8.50763 16.309 8.52639 16.309C8.54983 16.309 9.00468 16.4255 9.53924 16.5652Z" fill="#6F6E77"/>
<path d="M22.0635 0.780988C21.89 0.880002 20.4645 2.35938 20.3332 2.57489C20.2066 2.79621 20.2066 3.26216 20.3332 3.47766C20.5677 3.86789 20.9428 4.00185 21.2289 3.80382C21.4914 3.62327 22.8419 2.20795 22.9357 2.01575C23.278 1.31683 22.659 0.449001 22.0635 0.780988Z" fill="#6F6E77"/>
<path d="M20.1038 8.87721C19.8646 8.98787 19.7896 9.07523 19.6864 9.36645C19.5457 9.75668 19.6583 10.1993 19.9443 10.4207C20.0991 10.5371 20.16 10.543 21.8153 10.543C23.5174 10.543 23.5268 10.543 23.6862 10.409C24.1129 10.0537 24.1036 9.3548 23.6628 8.9471C23.5409 8.83061 23.4705 8.82479 21.9091 8.81314C20.6289 8.80149 20.2444 8.81314 20.1038 8.87721Z" fill="#6F6E77"/>
<path d="M20.6009 15.5866C20.282 15.7846 20.1319 16.4369 20.3195 16.7922C20.3992 16.9436 21.6231 18.2366 21.9326 18.4987C22.1764 18.7026 22.3687 18.7259 22.6219 18.5919C22.922 18.423 23.0345 18.1842 23.0111 17.7532C23.0017 17.5261 22.9642 17.3805 22.9032 17.2931C22.786 17.13 21.5199 15.8137 21.3042 15.6332C21.1073 15.4701 20.8259 15.4526 20.6009 15.5866Z" fill="#6F6E77"/>
</g>
<defs>
<clipPath id="clip0_3067_9425">
<rect width="24" height="24" fill="white" transform="matrix(1 0 0 -1 0 24)"/>
</clipPath>
</defs>
</svg>
