<svg width="48" height="48" viewBox="0 0 48 48" fill="none" xmlns="http://www.w3.org/2000/svg">
<path d="M24.2001 12.2998C24.3001 11.5998 24.0001 11.1998 23.4001 10.7998C23.4001 10.7998 23.4001 10.7998 23.3001 10.7998C22.0001 9.89977 20.5001 9.69977 18.9001 9.79977C17.7001 9.89977 16.7001 10.2998 15.8001 11.0998C15.5001 11.2998 15.3001 11.5998 15.4001 11.9998C15.4001 12.3998 15.4001 12.8998 15.4001 13.2998C15.4001 13.5998 15.4001 13.7998 15.4001 14.0998C13.9001 14.0998 12.5001 14.0998 11.1001 14.0998V27.1998H28.5001V14.1998H24.2001C24.2001 13.4998 24.1001 12.8998 24.2001 12.2998ZM17.7001 12.6998C17.7001 12.5998 17.8001 12.4998 17.8001 12.4998C19.1001 11.8998 20.5001 11.8998 21.8001 12.4998C21.9001 12.4998 22.0001 12.6998 22.0001 12.7998C22.0001 13.2998 22.0001 13.6998 22.0001 14.1998H17.6001C17.6001 13.6998 17.6001 13.1998 17.7001 12.6998ZM26.4001 25.0998H13.3001V20.7998H18.7001V22.8998H20.9001V20.7998H26.3001V25.0998H26.4001ZM26.4001 18.4998H13.3001V16.3998H26.4001V18.4998Z" fill="black" fill-opacity="0.87"/>
<path d="M43.2001 38.0999L32.8001 27.6999C34.8001 24.2999 35.5001 20.6999 34.9001 16.8999C33.7001 9.99994 27.8001 4.69994 20.8001 4.29993C17.7001 4.09993 14.8001 4.79993 12.1001 6.39994C8.2001 8.79994 5.8001 12.1999 4.9001 16.5999C4.8001 17.1999 4.7001 17.7999 4.6001 18.3999C4.6001 19.1999 4.6001 19.8999 4.6001 20.6999C4.7001 21.2999 4.8001 21.8999 4.9001 22.4999C5.8001 26.9999 8.3001 30.3999 12.1001 32.6999C15.3001 34.5999 18.8001 35.1999 22.6001 34.5999C24.3001 34.2999 25.9001 33.6999 27.4001 32.7999L37.9001 43.2999C38.3001 43.6999 38.9001 43.5999 39.3001 43.1999L43.1001 39.3999C43.5001 39.0999 43.6001 38.4999 43.2001 38.0999ZM19.8001 32.6999C12.6001 32.6999 6.7001 26.7999 6.7001 19.5999C6.7001 12.3999 12.6001 6.49994 19.8001 6.49994C27.0001 6.49994 32.9001 12.3999 32.9001 19.5999C32.9001 26.7999 27.1001 32.6999 19.8001 32.6999ZM38.5001 40.4999L29.9001 31.9999L31.8001 30.0999L40.3001 38.5999L38.5001 40.4999Z" fill="black" fill-opacity="0.87"/>
</svg>
