<svg width="16" height="16" viewBox="0 0 16 16" fill="none" xmlns="http://www.w3.org/2000/svg">
<path d="M7.667 0.5C6.18364 0.5 4.73359 0.939867 3.50022 1.76398C2.26685 2.58809 1.30556 3.75943 0.737899 5.12987C0.170242 6.50032 0.0217168 8.00832 0.311106 9.46318C0.600495 10.918 1.3148 12.2544 2.36369 13.3033C3.41259 14.3522 4.74896 15.0665 6.20382 15.3559C7.65868 15.6453 9.16668 15.4968 10.5371 14.9291C11.9076 14.3614 13.0789 13.4001 13.903 12.1668C14.7271 10.9334 15.167 9.48336 15.167 8C15.167 7.01509 14.973 6.03982 14.5961 5.12987C14.2192 4.21993 13.6667 3.39314 12.9703 2.6967C12.2739 2.00026 11.4471 1.44781 10.5371 1.0709C9.62718 0.693993 8.65191 0.5 7.667 0.5ZM7.667 14C6.48031 14 5.32027 13.6481 4.33357 12.9888C3.34688 12.3295 2.57784 11.3925 2.12372 10.2961C1.66959 9.19974 1.55077 7.99334 1.78228 6.82946C2.0138 5.66557 2.58524 4.59647 3.42435 3.75736C4.26347 2.91824 5.33257 2.3468 6.49645 2.11529C7.66034 1.88378 8.86674 2.0026 9.9631 2.45672C11.0595 2.91085 11.9965 3.67988 12.6558 4.66658C13.3151 5.65327 13.667 6.81331 13.667 8C13.667 9.5913 13.0349 11.1174 11.9096 12.2426C10.7844 13.3679 9.2583 14 7.667 14ZM7.667 3.5C7.46808 3.5 7.27732 3.57902 7.13667 3.71967C6.99601 3.86032 6.917 4.05109 6.917 4.25V7.9475L5.8895 9.725C5.79004 9.89805 5.7634 10.1035 5.81544 10.2962C5.86748 10.4889 5.99394 10.653 6.167 10.7525C6.34005 10.852 6.54552 10.8786 6.73822 10.8266C6.93091 10.7745 7.09504 10.6481 7.1945 10.475L8.3195 8.525C8.39165 8.38943 8.42045 8.23497 8.402 8.0825L8.417 8V4.25C8.417 4.05109 8.33798 3.86032 8.19733 3.71967C8.05667 3.57902 7.86591 3.5 7.667 3.5Z" fill="black" fill-opacity="0.6"/>
</svg>
