<svg width="16" height="16" viewBox="0 0 16 16" fill="none" xmlns="http://www.w3.org/2000/svg">
<path d="M8.00033 9.33268C8.73671 9.33268 9.33366 8.73573 9.33366 7.99935C9.33366 7.26297 8.73671 6.66602 8.00033 6.66602C7.26395 6.66602 6.66699 7.26297 6.66699 7.99935C6.66699 8.73573 7.26395 9.33268 8.00033 9.33268Z" stroke="#6E56CF" stroke-linecap="round" stroke-linejoin="round"/>
<path d="M13.333 12C14.173 10.8867 14.6663 9.5 14.6663 8C14.6663 6.5 14.173 5.11333 13.333 4" stroke="#6E56CF" stroke-linecap="round" stroke-linejoin="round"/>
<path d="M2.66634 4C1.82634 5.11333 1.33301 6.5 1.33301 8C1.33301 9.5 1.82634 10.8867 2.66634 12" stroke="#6E56CF" stroke-linecap="round" stroke-linejoin="round"/>
<path d="M11.2002 10.3996C11.7002 9.73295 12.0002 8.89961 12.0002 7.99961C12.0002 7.09961 11.7002 6.26628 11.2002 5.59961" stroke="#6E56CF" stroke-linecap="round" stroke-linejoin="round"/>
<path d="M4.80001 5.59961C4.30001 6.26628 4 7.09961 4 7.99961C4 8.89961 4.30001 9.73295 4.80001 10.3996" stroke="#6E56CF" stroke-linecap="round" stroke-linejoin="round"/>
</svg>
