<svg width="49" height="48" viewBox="0 0 49 48" fill="none" xmlns="http://www.w3.org/2000/svg">
<path d="M19.8401 7.97558C19.4212 8.0979 18.8362 8.50562 18.5401 8.88616C18.4173 9.04246 18.2439 9.36184 18.1501 9.59289L17.9912 10.0074L16.4167 10.0482C15.4633 10.0754 14.7194 10.1229 14.5461 10.1773C13.1088 10.5986 11.9677 11.747 11.6138 13.0993C11.4621 13.6497 11.4621 35.3814 11.6138 35.9319C11.9821 37.3589 13.2532 38.5549 14.7338 38.8879C15.4272 39.0374 34.5377 39.0374 35.2311 38.8879C36.7117 38.5549 37.9828 37.3589 38.3512 35.9319C38.5029 35.3814 38.5029 13.6497 38.3512 13.0993C37.9973 11.747 36.8561 10.5986 35.4189 10.1773C35.2455 10.1229 34.5016 10.0754 33.5483 10.0482L31.9738 10.0074L31.8149 9.59289C31.5043 8.79782 30.8543 8.18624 30.0743 7.96878C29.5615 7.81928 20.3457 7.82608 19.8401 7.97558ZM29.5615 10.1909C29.742 10.4627 29.9659 11.2646 29.9659 11.6383C29.9659 12.2567 30.3198 12.2159 24.9825 12.2159C19.6451 12.2159 19.999 12.2567 19.999 11.6383C19.999 11.2646 20.2229 10.4627 20.4034 10.1909L20.5046 10.0414H24.9825H29.4604L29.5615 10.1909ZM17.7889 12.5761C18.0056 13.276 18.634 13.908 19.4068 14.2002L19.8184 14.3565L24.6936 14.3769C29.7926 14.3972 30.2187 14.3769 30.7893 14.105C31.4249 13.7992 31.9882 13.1809 32.176 12.5829L32.2843 12.2159H33.5049C34.6894 12.2159 34.7255 12.2227 35.1011 12.4062C35.325 12.5149 35.5922 12.7188 35.7222 12.8819C36.2061 13.4799 36.1772 12.7663 36.1772 24.5156C36.1772 36.1901 36.1989 35.5309 35.7511 36.1221C35.6283 36.2716 35.3755 36.4823 35.1878 36.591L34.8411 36.7813H24.9825H15.1239L14.7772 36.591C14.5894 36.4823 14.3366 36.2716 14.2138 36.1221C13.766 35.5309 13.7877 36.1901 13.7877 24.5156C13.7877 12.7663 13.7588 13.4799 14.2427 12.8819C14.3727 12.7188 14.64 12.5149 14.8638 12.4062C15.2394 12.2227 15.2755 12.2159 16.46 12.2159H17.6806L17.7889 12.5761Z" fill="black" fill-opacity="0.87"/>
<path d="M22.2379 17.3188C22.0357 17.3595 21.7323 17.6178 20.7862 18.5351L19.5873 19.7039L19.2406 19.3166C18.7133 18.739 18.3883 18.5419 17.9622 18.5419C17.37 18.5419 16.9727 18.8273 16.8211 19.3642C16.6766 19.8602 16.7994 20.0777 17.8466 21.1038C19.1106 22.3474 19.4356 22.5104 20.0856 22.225C20.3817 22.0959 23.3357 19.2283 23.5596 18.8613C24.029 18.0595 23.2201 17.1081 22.2379 17.3188Z" fill="black" fill-opacity="0.87"/>
<path d="M26.5615 18.9014C26.2076 19.1189 25.962 19.6149 26.027 19.9751C26.0921 20.3353 26.4893 20.7566 26.8432 20.8517C27.1971 20.9401 33.3073 20.9401 33.6395 20.8517C33.9789 20.7634 34.3545 20.4032 34.4484 20.0906C34.5784 19.6285 34.3112 19.0645 33.8634 18.8471C33.69 18.7587 33.1123 18.7451 30.2305 18.7451H26.8071L26.5615 18.9014Z" fill="black" fill-opacity="0.87"/>
<path d="M22.2379 26.017C22.0357 26.0578 21.7323 26.316 20.7862 27.2334L19.5873 28.4022L19.2406 28.0148C18.7133 27.4372 18.3883 27.2402 17.9622 27.2402C17.37 27.2402 16.9727 27.5256 16.8211 28.0624C16.6766 28.5585 16.7994 28.7759 17.8466 29.802C19.1106 31.0456 19.4356 31.2087 20.0856 30.9233C20.3817 30.7942 23.3357 27.9265 23.5596 27.5596C24.029 26.7577 23.2201 25.8063 22.2379 26.017Z" fill="black" fill-opacity="0.87"/>
<path d="M26.5615 27.5997C26.2076 27.8171 25.962 28.3132 26.027 28.6733C26.0921 29.0335 26.4893 29.4548 26.8432 29.55C27.1971 29.6383 33.3073 29.6383 33.6395 29.55C33.9789 29.4616 34.3545 29.1015 34.4484 28.7889C34.5784 28.3268 34.3112 27.7628 33.8634 27.5453C33.69 27.457 33.1123 27.4434 30.2305 27.4434H26.8071L26.5615 27.5997Z" fill="black" fill-opacity="0.87"/>
</svg>
