<svg width="48" height="48" viewBox="0 0 48 48" fill="none" xmlns="http://www.w3.org/2000/svg">
<path d="M42.2996 38.1998C42.0996 38.1998 41.8996 38.1998 41.6996 38.1998C41.6996 37.9998 41.6996 37.7998 41.6996 37.6998C41.6996 33.5998 41.6996 29.5998 41.6996 25.4998C41.6996 25.3998 41.6996 25.2998 41.6996 25.0998C41.6996 24.7998 41.3996 24.5998 41.0996 24.5998C40.7996 24.5998 40.5996 24.7998 40.5996 25.0998C40.5996 25.1998 40.5996 25.2998 40.5996 25.4998C40.5996 29.5998 40.5996 33.5998 40.5996 37.6998C40.5996 37.7998 40.5996 37.9998 40.5996 38.0998C37.3996 38.0998 34.2996 38.0998 31.0996 38.0998C31.0996 37.4998 31.0996 36.9998 31.0996 36.4998C31.0996 35.9998 30.8996 35.7998 30.3996 35.7998C30.1996 35.7998 30.0996 35.7998 29.8996 35.7998C29.8996 31.1998 29.8996 26.6998 29.8996 22.1998C33.4996 22.1998 36.9996 22.1998 40.5996 22.1998C40.5996 22.3998 40.5996 22.5998 40.5996 22.7998C40.5996 23.0998 40.7996 23.3998 41.1996 23.3998C41.4996 23.3998 41.6996 23.1998 41.6996 22.7998C41.6996 22.5998 41.6996 22.3998 41.6996 22.1998C41.7996 22.1998 41.8996 22.1998 41.9996 22.1998C42.7996 22.1998 42.9996 21.8998 42.6996 21.0998C41.9996 19.2998 41.2996 17.4998 40.5996 15.6998C40.3996 15.0998 40.2996 15.0998 39.6996 15.0998C34.7996 15.0998 29.9996 15.0998 25.0996 15.0998C24.8996 15.0998 24.7996 15.0998 24.5996 15.0998C24.5996 14.4998 24.5996 13.8998 24.5996 13.2998C24.7996 13.2998 24.8996 13.2998 24.9996 13.2998C25.9996 13.2998 26.9996 13.2998 27.8996 13.2998C28.3996 13.2998 28.5996 13.0998 28.5996 12.5998C28.5996 11.6998 28.5996 10.8998 28.5996 9.9998C28.5996 9.4998 28.3996 9.2998 27.7996 9.2998C26.7996 9.2998 25.7996 9.2998 24.6996 9.2998C24.4996 9.2998 24.3996 9.2998 24.2996 9.0998C24.1996 8.8998 23.9996 8.7998 23.7996 8.7998C23.4996 8.7998 23.3996 8.9998 23.2996 9.1998C23.2996 9.2998 23.2996 9.4998 23.2996 9.5998C23.2996 11.2998 23.2996 13.0998 23.2996 14.7998C23.2996 14.8998 23.2996 15.0998 23.2996 15.1998C23.0996 15.1998 22.9996 15.1998 22.7996 15.1998C17.8996 15.1998 13.0996 15.1998 8.19961 15.1998C7.59961 15.1998 7.49961 15.2998 7.29961 15.7998C6.99961 16.6998 6.59961 17.5998 6.29961 18.3998C5.89961 19.3998 5.49961 20.3998 5.09961 21.3998C5.09961 21.4998 5.09961 21.5998 5.09961 21.7998C5.29961 22.2998 5.79961 22.1998 6.29961 22.1998C6.29961 22.2998 6.29961 22.4998 6.29961 22.5998C6.29961 26.6998 6.29961 30.6998 6.29961 34.7998C6.29961 34.8998 6.29961 34.8998 6.29961 34.9998C6.29961 35.4998 6.49961 35.6998 6.89961 35.6998C7.19961 35.6998 7.39961 35.3998 7.39961 34.9998C7.39961 30.8998 7.39961 26.7998 7.39961 22.5998C7.39961 22.4998 7.39961 22.2998 7.39961 22.0998C10.9996 22.0998 14.4996 22.0998 18.0996 22.0998C18.0996 26.5998 18.0996 31.0998 18.0996 35.6998C17.9996 35.6998 17.7996 35.6998 17.5996 35.6998C17.0996 35.6998 16.8996 35.8998 16.8996 36.3998C16.8996 36.8998 16.8996 37.4998 16.8996 37.9998C13.6996 37.9998 10.5996 37.9998 7.39961 37.9998C7.39961 37.6998 7.59961 36.9998 6.79961 36.9998C6.09961 36.9998 6.39961 37.6998 6.29961 38.0998C5.89961 38.1998 5.39961 37.9998 5.09961 38.4998C5.09961 38.5998 5.09961 38.6998 5.09961 38.8998C5.29961 39.1998 5.59961 39.2998 5.89961 39.2998C17.8996 39.2998 29.8996 39.2998 41.9996 39.2998C42.0996 39.2998 42.1996 39.2998 42.2996 39.2998C42.5996 39.2998 42.8996 38.9998 42.7996 38.6998C42.7996 38.3998 42.5996 38.1998 42.2996 38.1998ZM25.6996 16.2998C30.1996 16.2998 34.6996 16.2998 39.1996 16.2998C39.4996 16.2998 39.5996 16.3998 39.6996 16.5998C40.1996 17.9998 40.7996 19.2998 41.2996 20.6998C41.2996 20.7998 41.3996 20.8998 41.3996 21.0998C41.1996 21.0998 41.0996 21.0998 40.9996 21.0998C37.2996 21.0998 33.5996 21.0998 29.7996 21.0998C29.4996 21.0998 29.3996 20.9998 29.1996 20.7998C27.8996 19.3998 26.5996 17.8998 25.2996 16.4998C25.2996 16.4998 25.1996 16.3998 25.0996 16.2998C25.4996 16.2998 25.5996 16.2998 25.6996 16.2998ZM24.5996 10.3998C25.5996 10.3998 26.5996 10.3998 27.5996 10.3998C27.5996 10.9998 27.5996 11.5998 27.5996 12.1998C26.5996 12.1998 25.5996 12.1998 24.5996 12.1998C24.5996 11.5998 24.5996 10.9998 24.5996 10.3998ZM23.8996 16.6998C23.8996 16.6998 23.9996 16.6998 24.0996 16.4998C24.1996 16.5998 24.1996 16.6998 24.2996 16.7998C25.6996 18.3998 27.0996 19.9998 28.4996 21.4998C28.5996 21.6998 28.6996 21.8998 28.6996 22.0998C28.6996 26.4998 28.6996 30.8998 28.6996 35.2998C28.6996 35.3998 28.6996 35.5998 28.6996 35.6998C28.2996 35.6998 27.8996 35.6998 27.4996 35.6998C27.4996 35.5998 27.4996 35.3998 27.4996 35.2998C27.4996 33.6998 27.4996 32.1998 27.4996 30.5998C27.4996 29.9998 27.2996 29.7998 26.6996 29.7998C24.8996 29.7998 23.0996 29.7998 21.2996 29.7998C20.6996 29.7998 20.4996 29.9998 20.4996 30.5998C20.4996 32.0998 20.4996 33.6998 20.4996 35.1998C20.4996 35.2998 20.4996 35.4998 20.4996 35.5998C20.0996 35.5998 19.6996 35.5998 19.2996 35.5998C19.2996 35.4998 19.2996 35.2998 19.2996 35.1998C19.2996 30.7998 19.2996 26.3998 19.2996 21.8998C19.2996 21.6998 19.3996 21.4998 19.4996 21.3998C20.8996 19.9998 22.3996 18.2998 23.8996 16.6998ZM26.3996 31.0998C26.3996 32.6998 26.3996 34.1998 26.3996 35.7998C24.7996 35.7998 23.2996 35.7998 21.6996 35.7998C21.6996 34.1998 21.6996 32.6998 21.6996 31.0998C23.1996 31.0998 24.7996 31.0998 26.3996 31.0998ZM6.79961 21.0998C6.69961 21.0998 6.69961 21.0998 6.59961 21.0998C6.59961 20.9998 6.69961 20.8998 6.69961 20.7998C7.19961 19.3998 7.79961 18.0998 8.29961 16.6998C8.39961 16.4998 8.49961 16.3998 8.79961 16.3998C13.2996 16.3998 17.7996 16.3998 22.2996 16.3998C22.3996 16.3998 22.4996 16.3998 22.6996 16.3998C22.4996 16.5998 22.3996 16.7998 22.1996 16.9998C20.9996 18.2998 19.7996 19.5998 18.5996 20.9998C18.4996 21.0998 18.2996 21.1998 18.0996 21.1998C14.3996 21.0998 10.5996 21.0998 6.79961 21.0998ZM29.8996 38.1998C25.9996 38.1998 21.9996 38.1998 18.0996 38.1998C18.0996 37.7998 18.0996 37.3998 18.0996 36.9998C22.0996 36.9998 25.9996 36.9998 29.8996 36.9998C29.8996 37.3998 29.8996 37.7998 29.8996 38.1998Z" fill="black" fill-opacity="0.87"/>
<path d="M39.3 24.2C39.3 23.7 39.1 23.5 38.5 23.5C36.3 23.5 34.1 23.5 31.8 23.5C31.2 23.5 31 23.7 31 24.3C31 25.5 31 26.8 31 28C31 28.6 31.2 28.8 31.8 28.8C32.9 28.8 34 28.8 35.1 28.8C36.2 28.8 37.4 28.8 38.5 28.8C39 28.8 39.2 28.6 39.2 28.1C39.3 26.7 39.3 25.4 39.3 24.2ZM33.5 27.5C33.1 27.5 32.7 27.5 32.3 27.5C32.3 26.5 32.3 25.5 32.3 24.5C32.7 24.5 33.1 24.5 33.5 24.5C33.5 25.6 33.5 26.5 33.5 27.5ZM35.8 27.5C35.4 27.5 35 27.5 34.6 27.5C34.6 26.5 34.6 25.5 34.6 24.5C35 24.5 35.4 24.5 35.8 24.5C35.8 25.6 35.8 26.5 35.8 27.5ZM38.2 27.5C37.8 27.5 37.4 27.5 37 27.5C37 26.5 37 25.6 37 24.6C37.4 24.6 37.8 24.6 38.2 24.6C38.2 25.6 38.2 26.5 38.2 27.5Z" fill="black" fill-opacity="0.87"/>
<path d="M39.2994 33.9C39.2994 32.8 39.2994 31.7 39.2994 30.6C39.2994 30.2 39.0994 30 38.6994 30C37.9994 30 37.1994 30 36.4994 30C35.9994 30 35.8994 30.2 35.8994 30.7C35.8994 31.3 35.8994 31.8 35.8994 32.4C35.8994 33 35.8994 33.5 35.8994 34.1C35.8994 34.5 36.0994 34.7 36.4994 34.7C37.1994 34.7 37.8994 34.7 38.6994 34.7C39.0994 34.6 39.2994 34.4 39.2994 33.9ZM38.1994 33.5C37.7994 33.5 37.3994 33.5 36.9994 33.5C36.9994 32.7 36.9994 31.9 36.9994 31.1C37.3994 31.1 37.7994 31.1 38.1994 31.1C38.1994 31.9 38.1994 32.6 38.1994 33.5Z" fill="black" fill-opacity="0.87"/>
<path d="M34.5992 33.8998C34.5992 33.2998 34.5992 32.7998 34.5992 32.1998C34.5992 31.5998 34.5992 31.0998 34.5992 30.4998C34.5992 30.0998 34.3992 29.8998 33.9992 29.7998C33.2992 29.7998 32.4992 29.7998 31.7992 29.7998C31.3992 29.7998 31.1992 29.9998 31.1992 30.3998C31.1992 31.4998 31.1992 32.6998 31.1992 33.7998C31.1992 34.1998 31.3992 34.3998 31.8992 34.3998C32.5992 34.3998 33.2992 34.3998 33.9992 34.3998C34.3992 34.5998 34.5992 34.3998 34.5992 33.8998ZM33.4992 33.4998C33.0992 33.4998 32.6992 33.4998 32.2992 33.4998C32.2992 32.6998 32.2992 31.8998 32.2992 31.0998C32.6992 31.0998 33.0992 31.0998 33.4992 31.0998C33.4992 31.8998 33.4992 32.5998 33.4992 33.4998Z" fill="black" fill-opacity="0.87"/>
<path d="M32.2998 36.3995C32.2998 36.6995 32.4998 36.8995 32.7998 36.9995C33.0998 36.9995 33.3998 36.7995 33.3998 36.4995C33.3998 36.1995 33.1998 35.9995 32.8998 35.8995C32.5998 35.7995 32.2998 35.9995 32.2998 36.3995Z" fill="black" fill-opacity="0.87"/>
<path d="M37 36.3994C37 36.6994 37.3 36.9994 37.6 36.9994C37.9 36.9994 38.2 36.6994 38.1 36.3994C38.1 36.0994 37.8 35.8994 37.5 35.8994C37.3 35.8994 37 36.0994 37 36.3994Z" fill="black" fill-opacity="0.87"/>
<path d="M16.0992 23.3994C13.8992 23.3994 11.5992 23.3994 9.39922 23.3994C8.89922 23.3994 8.69922 23.5994 8.69922 24.0994C8.69922 25.2994 8.69922 26.5994 8.69922 27.7994C8.69922 28.3994 8.89922 28.5994 9.49922 28.5994C10.5992 28.5994 11.6992 28.5994 12.7992 28.5994C13.8992 28.5994 14.9992 28.5994 16.0992 28.5994C16.6992 28.5994 16.8992 28.3994 16.8992 27.8994C16.8992 26.5994 16.8992 25.3994 16.8992 24.0994C16.8992 23.5994 16.6992 23.3994 16.0992 23.3994ZM10.9992 27.4994C10.5992 27.4994 10.1992 27.4994 9.79922 27.4994C9.79922 26.4994 9.79922 25.5994 9.79922 24.4994C10.1992 24.4994 10.5992 24.4994 10.9992 24.4994C10.9992 25.5994 10.9992 26.4994 10.9992 27.4994ZM13.3992 27.4994C12.9992 27.4994 12.5992 27.4994 12.1992 27.4994C12.1992 26.4994 12.1992 25.4994 12.1992 24.5994C12.5992 24.5994 12.9992 24.5994 13.3992 24.5994C13.3992 25.5994 13.3992 26.4994 13.3992 27.4994ZM15.6992 27.4994C15.2992 27.4994 14.8992 27.4994 14.4992 27.4994C14.4992 26.4994 14.4992 25.4994 14.4992 24.4994C14.8992 24.4994 15.2992 24.4994 15.6992 24.4994C15.6992 25.5994 15.6992 26.4994 15.6992 27.4994Z" fill="black" fill-opacity="0.87"/>
<path d="M12.1992 33.8994C12.1992 33.2994 12.1992 32.7994 12.1992 32.1994C12.1992 31.6994 12.1992 31.0994 12.1992 30.5994C12.1992 30.0994 11.9992 29.8994 11.4992 29.8994C10.7992 29.8994 10.0992 29.8994 9.39922 29.8994C8.89922 29.8994 8.69922 30.0994 8.69922 30.5994C8.69922 31.6994 8.69922 32.7994 8.69922 33.7994C8.69922 34.2994 8.89922 34.4994 9.39922 34.4994C10.0992 34.4994 10.7992 34.4994 11.4992 34.4994C11.9992 34.5994 12.1992 34.3994 12.1992 33.8994ZM10.9992 33.3994C10.5992 33.3994 10.1992 33.3994 9.79922 33.3994C9.79922 32.5994 9.79922 31.7994 9.79922 30.9994C10.1992 30.9994 10.5992 30.9994 10.9992 30.9994C10.9992 31.8994 10.9992 32.5994 10.9992 33.3994Z" fill="black" fill-opacity="0.87"/>
<path d="M16.8994 33.8998C16.8994 33.2998 16.8994 32.7998 16.8994 32.1998C16.8994 31.5998 16.8994 31.0998 16.8994 30.4998C16.8994 29.9998 16.6994 29.7998 16.1994 29.7998C15.4994 29.7998 14.7994 29.7998 14.0994 29.7998C13.5994 29.7998 13.3994 29.9998 13.3994 30.4998C13.3994 31.5998 13.3994 32.6998 13.3994 33.7998C13.3994 34.2998 13.5994 34.4998 14.0994 34.4998C14.7994 34.4998 15.4994 34.4998 16.1994 34.4998C16.6994 34.5998 16.8994 34.3998 16.8994 33.8998ZM15.6994 33.4998C15.2994 33.4998 14.8994 33.4998 14.4994 33.4998C14.4994 32.6998 14.4994 31.8998 14.4994 31.0998C14.8994 31.0998 15.2994 31.0998 15.6994 31.0998C15.6994 31.8998 15.6994 32.5998 15.6994 33.4998Z" fill="black" fill-opacity="0.87"/>
<path d="M9.89941 36.3995C9.89941 36.6995 10.1994 36.9995 10.4994 36.9995C10.7994 36.9995 10.9994 36.7995 10.9994 36.4995C10.9994 36.1995 10.7994 35.8995 10.4994 35.8995C10.0994 35.7995 9.89941 36.0995 9.89941 36.3995Z" fill="black" fill-opacity="0.87"/>
<path d="M14.5996 36.3995C14.5996 36.6995 14.8996 36.9995 15.0996 36.9995C15.3996 36.9995 15.5996 36.7995 15.5996 36.4995C15.5996 36.1995 15.3996 35.8995 15.0996 35.8995C14.8996 35.7995 14.5996 36.0995 14.5996 36.3995Z" fill="black" fill-opacity="0.87"/>
<path d="M21.3 28.6994C23.1 28.6994 24.9 28.6994 26.7 28.6994C27.3 28.6994 27.5 28.4994 27.5 27.8994C27.5 26.6994 27.5 25.3994 27.5 24.1994C27.5 23.5994 27.3 23.3994 26.7 23.3994C25.8 23.3994 24.9 23.3994 24 23.3994C23.1 23.3994 22.2 23.3994 21.3 23.3994C20.7 23.3994 20.5 23.5994 20.5 24.1994C20.5 25.3994 20.5 26.6994 20.5 27.8994C20.5 28.4994 20.7 28.6994 21.3 28.6994ZM24.6 24.5994C25.2 24.5994 25.8 24.5994 26.4 24.5994C26.4 25.5994 26.4 26.5994 26.4 27.4994C25.8 27.4994 25.2 27.4994 24.6 27.4994C24.6 26.5994 24.6 25.5994 24.6 24.5994ZM21.6 24.5994C22.2 24.5994 22.8 24.5994 23.4 24.5994C23.4 25.5994 23.4 26.4994 23.4 27.4994C22.8 27.4994 22.2 27.4994 21.6 27.4994C21.6 26.5994 21.6 25.5994 21.6 24.5994Z" fill="black" fill-opacity="0.87"/>
<path d="M23.9992 22.2002C24.8992 22.2002 25.6992 21.4002 25.6992 20.5002C25.6992 19.6002 24.8992 18.8002 23.9992 18.7002C23.0992 18.7002 22.1992 19.5002 22.1992 20.5002C22.2992 21.4002 23.0992 22.2002 23.9992 22.2002ZM23.9992 19.8002C24.2992 19.8002 24.5992 20.0002 24.5992 20.4002C24.5992 20.8002 24.2992 21.0002 23.9992 21.0002C23.6992 21.0002 23.3992 20.7002 23.3992 20.4002C23.3992 20.1002 23.5992 19.8002 23.9992 19.8002Z" fill="black" fill-opacity="0.87"/>
</svg>
