<svg width="24" height="24" viewBox="0 0 24 24" fill="none" xmlns="http://www.w3.org/2000/svg">
<g clip-path="url(#clip0_2307_44026)">
<path d="M19.0718 4.81162C17.6732 3.46904 15.8912 2.55477 13.9513 2.18441C12.0114 1.81404 10.0007 2.00422 8.17333 2.7309C6.34601 3.45758 4.78418 4.68812 3.68534 6.26691C2.5865 7.8457 2 9.70185 2 11.6006C2 13.4994 2.5865 15.3556 3.68534 16.9343C4.78418 18.5131 6.34601 19.7437 8.17333 20.4704C10.0007 21.197 12.0114 21.3872 13.9513 21.0168C15.8912 20.6465 17.6732 19.7322 19.0718 18.3896C20.945 16.5878 21.997 14.1462 21.997 11.6006C21.997 9.05503 20.945 6.61341 19.0718 4.81162ZM15.6573 4.19443C16.5536 4.57778 17.3713 5.11193 18.0718 5.77168C19.2724 6.93611 20.0876 8.41536 20.4148 10.0234L19.329 10.8463L19.0004 10.4348C19.0004 10.433 19.0001 10.4312 18.9994 10.4295C18.9987 10.4278 18.9976 10.4263 18.9963 10.425C18.9949 10.4237 18.9934 10.4227 18.9916 10.4221C18.9899 10.4214 18.988 10.4211 18.9861 10.4211L18.9718 10.4074L14.8001 5.33279C14.8001 5.33098 14.7998 5.32918 14.7991 5.3275C14.7984 5.32582 14.7973 5.32429 14.796 5.32301C14.7947 5.32173 14.7931 5.32072 14.7913 5.32004C14.7896 5.31937 14.7877 5.31904 14.7858 5.31908V5.30536L14.5572 5.03106L15.6573 4.19443ZM17.4289 10.7366L16.8002 11.2166C16.7276 11.2702 16.6648 11.3351 16.6145 11.4086L13.5857 16.593C13.5209 16.6999 13.4222 16.7842 13.304 16.8336C13.1858 16.8829 13.0543 16.8947 12.9286 16.8673C12.8487 16.8524 12.7731 16.8215 12.7066 16.7766C12.6401 16.7317 12.5843 16.6738 12.5428 16.6067C12.4999 16.5397 12.4714 16.4651 12.4591 16.3873C12.4469 16.3096 12.451 16.2302 12.4714 16.1541L13.0429 14.1791C13.0834 14.0552 13.0847 13.9226 13.0465 13.7981C13.0084 13.6735 12.9325 13.5627 12.8286 13.4796C12.727 13.3929 12.6013 13.3364 12.4669 13.3169C12.3325 13.2974 12.1951 13.3158 12.0714 13.3699L9.45691 14.4945C9.35744 14.5364 9.24964 14.5569 9.14106 14.5545C9.03248 14.5521 8.92576 14.527 8.82838 14.4808C8.7329 14.4293 8.65023 14.3584 8.58609 14.2732C8.52195 14.1879 8.47788 14.0903 8.45693 13.9871L8.01404 11.4909C7.93781 11.0494 8.01202 10.596 8.22566 10.1981C8.4393 9.80031 8.78095 9.47928 9.19983 9.28276L13.2572 7.40378C13.3102 7.37982 13.3585 7.34735 13.4001 7.30778L14.1287 6.73174L17.4289 10.7366Z" fill="#FC6665"/>
</g>
<defs>
<clipPath id="clip0_2307_44026">
<rect width="24" height="24" fill="white"/>
</clipPath>
</defs>
</svg>
