<svg width="24" height="24" viewBox="0 0 24 24" fill="none" xmlns="http://www.w3.org/2000/svg">
<path d="M19.0741 4.92575C17.675 3.52681 15.8925 2.57415 13.952 2.18824C12.0115 1.80233 10.0001 2.0005 8.17227 2.75768C6.3444 3.51487 4.7821 4.79706 3.68292 6.44214C2.58375 8.08721 1.99707 10.0213 1.99707 11.9998C1.99707 13.9783 2.58375 15.9123 3.68292 17.5574C4.7821 19.2025 6.3444 20.4847 8.17227 21.2419C10.0001 21.9991 12.0115 22.1972 13.952 21.8113C15.8925 21.4254 17.675 20.4727 19.0741 19.0738C20.9478 17.1964 22.0001 14.6522 22.0001 11.9998C22.0001 9.34731 20.9478 6.80319 19.0741 4.92575ZM8.34154 19.7169C7.44491 19.3175 6.62697 18.7609 5.92637 18.0734C4.72538 16.8601 3.90996 15.3188 3.58265 13.6432L4.66876 12.7858L4.99745 13.2145C4.99741 13.2164 4.99776 13.2183 4.99846 13.22C4.99917 13.2218 5.00022 13.2234 5.00155 13.2247C5.00289 13.226 5.00448 13.2271 5.00623 13.2278C5.00798 13.2285 5.00986 13.2288 5.01174 13.2288L5.02603 13.2431L9.199 18.5308C9.19896 18.5326 9.19931 18.5345 9.20002 18.5363C9.20072 18.538 9.20178 18.5396 9.20311 18.5409C9.20445 18.5422 9.20604 18.5433 9.20779 18.544C9.20954 18.5447 9.21141 18.545 9.21329 18.545V18.5592L9.44195 18.8451L8.34154 19.7169ZM6.56946 12.9001L7.19826 12.3999C7.27099 12.3441 7.33379 12.2765 7.38405 12.1999L10.4137 6.79786C10.4786 6.68642 10.5773 6.59859 10.6956 6.54718C10.8138 6.49577 10.9454 6.48346 11.0711 6.51205C11.1509 6.52753 11.2266 6.55973 11.2931 6.60653C11.3596 6.65333 11.4154 6.71366 11.457 6.78357C11.4999 6.85337 11.5284 6.93109 11.5406 7.01211C11.5529 7.09313 11.5488 7.17579 11.5284 7.25518L10.9568 9.31308C10.9162 9.44213 10.915 9.58032 10.9531 9.7101C10.9913 9.83987 11.0672 9.95537 11.1712 10.0419C11.2728 10.1323 11.3984 10.1912 11.5329 10.2115C11.6674 10.2318 11.8048 10.2126 11.9286 10.1562L14.5438 8.98446C14.6433 8.94079 14.7511 8.91944 14.8598 8.92189C14.9684 8.92435 15.0751 8.95056 15.1725 8.99867C15.2681 9.0524 15.3507 9.12625 15.4149 9.21509C15.4791 9.30394 15.5231 9.40566 15.5441 9.51322L15.9871 12.1141C16.0634 12.5742 15.9891 13.0466 15.7754 13.4612C15.5617 13.8757 15.22 14.2102 14.801 14.415L10.7423 16.3729C10.6893 16.3978 10.641 16.4316 10.5994 16.4729L9.87059 17.0731L6.56946 12.9001Z" fill="#03C988"/>
</svg>
