<svg width="16" height="16" viewBox="0 0 16 16" fill="none" xmlns="http://www.w3.org/2000/svg">
<path d="M7.99984 15.1667C4.5065 15.1667 1.6665 12.3267 1.6665 8.83333C1.6665 5.34 4.5065 2.5 7.99984 2.5C11.4932 2.5 14.3332 5.34 14.3332 8.83333C14.3332 12.3267 11.4932 15.1667 7.99984 15.1667ZM7.99984 3.5C5.05984 3.5 2.6665 5.89333 2.6665 8.83333C2.6665 11.7733 5.05984 14.1667 7.99984 14.1667C10.9398 14.1667 13.3332 11.7733 13.3332 8.83333C13.3332 5.89333 10.9398 3.5 7.99984 3.5Z" fill="#292D32"/>
<path d="M8 9.16732C7.72667 9.16732 7.5 8.94065 7.5 8.66732V5.33398C7.5 5.06065 7.72667 4.83398 8 4.83398C8.27333 4.83398 8.5 5.06065 8.5 5.33398V8.66732C8.5 8.94065 8.27333 9.16732 8 9.16732Z" fill="#292D32"/>
<path d="M10 1.83398H6C5.72667 1.83398 5.5 1.60732 5.5 1.33398C5.5 1.06065 5.72667 0.833984 6 0.833984H10C10.2733 0.833984 10.5 1.06065 10.5 1.33398C10.5 1.60732 10.2733 1.83398 10 1.83398Z" fill="#292D32"/>
</svg>
