<svg width="36" height="36" viewBox="0 0 36 36" fill="none" xmlns="http://www.w3.org/2000/svg">
<circle cx="18" cy="18" r="18" fill="black" fill-opacity="0.06"/>
<path d="M26 14.9168V9.0835" stroke="black" stroke-opacity="0.38" stroke-linecap="round" stroke-linejoin="round"/>
<path d="M23.082 12.0002L25.9987 9.0835L28.9154 12.0002" stroke="black" stroke-opacity="0.38" stroke-linecap="round" stroke-linejoin="round"/>
<g clip-path="url(#clip0_1829_108413)">
<path d="M22.3336 13.333H19.6668V12.6667C19.6668 12.2985 19.3684 12 19.0002 12H15.0001C14.6319 12 14.3334 12.2985 14.3334 12.6667V13.333H11.6667C11.2985 13.333 11 13.6315 11 13.9997V27.3333C11 27.7015 11.2985 28 11.6667 28H22.3336C22.7018 28 23.0002 27.7015 23.0002 27.3333V13.9997C23.0002 13.6315 22.7018 13.333 22.3336 13.333ZM15.6668 13.3334H18.3335V13.9997V14.6664H15.6668V13.9997V13.3334ZM21.6669 26.6666H12.3334V14.6664H14.3334V15.3331V15.3334C14.3334 15.7016 14.6319 16.0001 15.0001 16.0001H19.0002C19.3684 16.0001 19.6668 15.7016 19.6668 15.3334V15.3331V14.6664H21.6669V26.6666Z" fill="black" fill-opacity="0.38"/>
<path d="M18.9988 18H14.9987C14.6305 18 14.332 18.2985 14.332 18.6667C14.332 19.0349 14.6305 19.3334 14.9987 19.3334H18.9988C19.367 19.3334 19.6655 19.0349 19.6655 18.6667C19.6655 18.2985 19.367 18 18.9988 18Z" fill="black" fill-opacity="0.38"/>
<path d="M18.9988 20.6665H14.9987C14.6305 20.6665 14.332 20.965 14.332 21.3332C14.332 21.7014 14.6305 21.9999 14.9987 21.9999H18.9988C19.367 21.9999 19.6655 21.7014 19.6655 21.3332C19.6655 20.965 19.367 20.6665 18.9988 20.6665Z" fill="black" fill-opacity="0.38"/>
<path d="M18.9988 23.333H14.9987C14.6305 23.333 14.332 23.6315 14.332 23.9997C14.332 24.3679 14.6305 24.6664 14.9987 24.6664H18.9988C19.367 24.6664 19.6655 24.3679 19.6655 23.9997C19.6655 23.6315 19.367 23.333 18.9988 23.333Z" fill="black" fill-opacity="0.38"/>
</g>
<defs>
<clipPath id="clip0_1829_108413">
<rect width="16" height="16" fill="white" transform="translate(9 12)"/>
</clipPath>
</defs>
</svg>
