<svg width="19" height="18" viewBox="0 0 19 18" fill="none" xmlns="http://www.w3.org/2000/svg">
<path d="M9.667 1.5C8.18364 1.5 6.73359 1.93987 5.50022 2.76398C4.26685 3.58809 3.30556 4.75943 2.7379 6.12987C2.17024 7.50032 2.02172 9.00832 2.31111 10.4632C2.6005 11.918 3.3148 13.2544 4.36369 14.3033C5.41259 15.3522 6.74896 16.0665 8.20382 16.3559C9.65868 16.6453 11.1667 16.4968 12.5371 15.9291C13.9076 15.3614 15.0789 14.4001 15.903 13.1668C16.7271 11.9334 17.167 10.4834 17.167 9C17.167 8.01509 16.973 7.03982 16.5961 6.12987C16.2192 5.21993 15.6667 4.39314 14.9703 3.6967C14.2739 3.00026 13.4471 2.44781 12.5371 2.0709C11.6272 1.69399 10.6519 1.5 9.667 1.5ZM9.667 15C8.48031 15 7.32027 14.6481 6.33357 13.9888C5.34688 13.3295 4.57784 12.3925 4.12372 11.2961C3.66959 10.1997 3.55077 8.99334 3.78228 7.82946C4.0138 6.66557 4.58524 5.59647 5.42435 4.75736C6.26347 3.91824 7.33257 3.3468 8.49645 3.11529C9.66034 2.88378 10.8667 3.0026 11.9631 3.45672C13.0595 3.91085 13.9965 4.67988 14.6558 5.66658C15.3151 6.65327 15.667 7.81331 15.667 9C15.667 10.5913 15.0349 12.1174 13.9096 13.2426C12.7844 14.3679 11.2583 15 9.667 15ZM9.667 4.5C9.46808 4.5 9.27732 4.57902 9.13667 4.71967C8.99601 4.86032 8.917 5.05109 8.917 5.25V8.9475L7.8895 10.725C7.79004 10.8981 7.7634 11.1035 7.81544 11.2962C7.86748 11.4889 7.99394 11.653 8.167 11.7525C8.34005 11.852 8.54552 11.8786 8.73822 11.8266C8.93091 11.7745 9.09504 11.6481 9.1945 11.475L10.3195 9.525C10.3917 9.38943 10.4205 9.23497 10.402 9.0825L10.417 9V5.25C10.417 5.05109 10.338 4.86032 10.1973 4.71967C10.0567 4.57902 9.86591 4.5 9.667 4.5Z" fill="black" fill-opacity="0.6"/>
</svg>
