<svg width="37" height="36" viewBox="0 0 37 36" fill="none" xmlns="http://www.w3.org/2000/svg">
<rect x="0.714478" width="36" height="36" rx="18" fill="black" fill-opacity="0.06"/>
<path d="M26.3339 10.8584C26.6348 11.1594 26.8397 11.5428 26.9227 11.9603C27.0057 12.3777 26.963 12.8103 26.8001 13.2035C26.6372 13.5967 26.3614 13.9327 26.0075 14.1692C25.6536 14.4056 25.2376 14.5318 24.812 14.5318C24.3864 14.5318 23.9704 14.4056 23.6165 14.1692C23.2626 13.9327 22.9868 13.5967 22.8239 13.2035C22.661 12.8103 22.6184 12.3777 22.7013 11.9603C22.7843 11.5428 22.9892 11.1594 23.2901 10.8584" stroke="#FF3B30" stroke-linecap="round" stroke-linejoin="round"/>
<path d="M24.8126 9.75V12.1411" stroke="#FF3B30" stroke-linecap="round" stroke-linejoin="round"/>
<path d="M20.2353 18.9097C20.9373 18.3604 21.4496 17.6072 21.7011 16.7549C21.9526 15.9025 21.9308 14.9934 21.6385 14.154C21.3463 13.3146 20.7983 12.5866 20.0707 12.0714C19.343 11.5562 18.4721 11.2793 17.5789 11.2793C16.6857 11.2793 15.8147 11.5562 15.0871 12.0714C14.3595 12.5866 13.8114 13.3146 13.5192 14.154C13.227 14.9934 13.2051 15.9025 13.4566 16.7549C13.7081 17.6072 14.2205 18.3604 14.9224 18.9097C13.7196 19.389 12.67 20.1839 11.8857 21.2097C11.1014 22.2355 10.6117 23.4537 10.4688 24.7346C10.4585 24.8281 10.4667 24.9227 10.4932 25.013C10.5196 25.1034 10.5636 25.1876 10.6228 25.261C10.7423 25.4093 10.9162 25.5042 11.1061 25.525C11.296 25.5458 11.4864 25.4907 11.6354 25.3718C11.7845 25.253 11.8799 25.0801 11.9008 24.8912C12.0581 23.4992 12.7255 22.2136 13.7755 21.2801C14.8256 20.3465 16.1847 19.8304 17.5932 19.8304C19.0017 19.8304 20.3608 20.3465 21.4108 21.2801C22.4609 22.2136 23.1283 23.4992 23.2855 24.8912C23.305 25.0662 23.3889 25.2278 23.5212 25.3449C23.6534 25.4619 23.8245 25.5261 24.0015 25.525H24.0803C24.268 25.5035 24.4395 25.4091 24.5576 25.2624C24.6756 25.1157 24.7305 24.9285 24.7104 24.7417C24.5668 23.4572 24.0745 22.2358 23.2861 21.2085C22.4978 20.1811 21.4431 19.3864 20.2353 18.9097ZM17.5789 18.4041C17.0124 18.4041 16.4587 18.2371 15.9877 17.9241C15.5167 17.6111 15.1496 17.1662 14.9328 16.6458C14.716 16.1253 14.6593 15.5526 14.7698 15.0001C14.8803 14.4475 15.1531 13.94 15.5537 13.5417C15.9542 13.1433 16.4645 12.872 17.0201 12.7621C17.5757 12.6522 18.1516 12.7086 18.6749 12.9242C19.1982 13.1398 19.6455 13.5049 19.9602 13.9733C20.275 14.4417 20.4429 14.9924 20.4429 15.5557C20.4429 16.3112 20.1412 17.0357 19.6041 17.5698C19.0669 18.104 18.3385 18.4041 17.5789 18.4041Z" fill="black" fill-opacity="0.87"/>
</svg>
