<svg width="25" height="24" viewBox="0 0 25 24" fill="none" xmlns="http://www.w3.org/2000/svg">
<path d="M12.4667 12.22C13.0003 11.7581 13.4283 11.1869 13.7216 10.545C14.0149 9.90316 14.1668 9.20571 14.1667 8.5C14.1667 7.17392 13.64 5.90215 12.7023 4.96447C11.7646 4.02678 10.4928 3.5 9.16675 3.5C7.84067 3.5 6.5689 4.02678 5.63121 4.96447C4.69353 5.90215 4.16675 7.17392 4.16675 8.5C4.16674 9.20571 4.31855 9.90316 4.61187 10.545C4.9052 11.1869 5.33317 11.7581 5.86675 12.22C4.46689 12.8539 3.27921 13.8775 2.44573 15.1685C1.61224 16.4596 1.16822 17.9633 1.16675 19.5C1.16675 19.7652 1.2721 20.0196 1.45964 20.2071C1.64718 20.3946 1.90153 20.5 2.16675 20.5C2.43196 20.5 2.68632 20.3946 2.87385 20.2071C3.06139 20.0196 3.16675 19.7652 3.16675 19.5C3.16675 17.9087 3.79889 16.3826 4.92411 15.2574C6.04933 14.1321 7.57545 13.5 9.16675 13.5C10.758 13.5 12.2842 14.1321 13.4094 15.2574C14.5346 16.3826 15.1667 17.9087 15.1667 19.5C15.1667 19.7652 15.2721 20.0196 15.4596 20.2071C15.6472 20.3946 15.9015 20.5 16.1667 20.5C16.432 20.5 16.6863 20.3946 16.8739 20.2071C17.0614 20.0196 17.1667 19.7652 17.1667 19.5C17.1653 17.9633 16.7213 16.4596 15.8878 15.1685C15.0543 13.8775 13.8666 12.8539 12.4667 12.22ZM9.16675 11.5C8.5734 11.5 7.99338 11.3241 7.50004 10.9944C7.00669 10.6648 6.62217 10.1962 6.39511 9.64805C6.16805 9.09987 6.10864 8.49667 6.22439 7.91473C6.34015 7.33279 6.62587 6.79824 7.04543 6.37868C7.46499 5.95912 7.99953 5.6734 8.58148 5.55764C9.16342 5.44189 9.76662 5.5013 10.3148 5.72836C10.863 5.95542 11.3315 6.33994 11.6612 6.83329C11.9908 7.32664 12.1667 7.90666 12.1667 8.5C12.1667 9.29565 11.8507 10.0587 11.2881 10.6213C10.7255 11.1839 9.9624 11.5 9.16675 11.5ZM18.9067 11.82C19.5467 11.0993 19.9648 10.2091 20.1105 9.25634C20.2563 8.30362 20.1237 7.32907 19.7285 6.45C19.3334 5.57093 18.6925 4.8248 17.8832 4.30142C17.0739 3.77805 16.1306 3.49974 15.1667 3.5C14.9015 3.5 14.6472 3.60536 14.4596 3.79289C14.2721 3.98043 14.1667 4.23478 14.1667 4.5C14.1667 4.76522 14.2721 5.01957 14.4596 5.20711C14.6472 5.39464 14.9015 5.5 15.1667 5.5C15.9624 5.5 16.7255 5.81607 17.2881 6.37868C17.8507 6.94129 18.1667 7.70435 18.1667 8.5C18.1653 9.02524 18.026 9.5409 17.7628 9.99542C17.4996 10.4499 17.1216 10.8274 16.6667 11.09C16.5185 11.1755 16.3947 11.2977 16.3071 11.4447C16.2196 11.5918 16.1712 11.7589 16.1667 11.93C16.1626 12.0998 16.2017 12.2678 16.2804 12.4183C16.3591 12.5687 16.4749 12.6967 16.6167 12.79L17.0067 13.05L17.1367 13.12C18.3421 13.6917 19.3591 14.596 20.0677 15.7263C20.7764 16.8566 21.1473 18.1659 21.1367 19.5C21.1367 19.7652 21.2421 20.0196 21.4296 20.2071C21.6172 20.3946 21.8715 20.5 22.1367 20.5C22.402 20.5 22.6563 20.3946 22.8439 20.2071C23.0314 20.0196 23.1367 19.7652 23.1367 19.5C23.1449 17.9654 22.7606 16.4543 22.0202 15.1101C21.2799 13.7659 20.2081 12.6333 18.9067 11.82Z" fill="#4D4D4D"/>
</svg>
