<svg width="14" height="16" viewBox="0 0 14 16" fill="none" xmlns="http://www.w3.org/2000/svg">
<path d="M11.4997 2.36005C10.3062 1.16658 8.68753 0.496094 6.9997 0.496094C5.31188 0.496094 3.69318 1.16658 2.4997 2.36005C1.30623 3.55353 0.635742 5.17223 0.635742 6.86005C0.635742 8.54788 1.30623 10.1666 2.4997 11.3601L6.4522 15.3201C6.52193 15.3904 6.60488 15.4461 6.69627 15.4842C6.78767 15.5223 6.88569 15.5419 6.9847 15.5419C7.08371 15.5419 7.18174 15.5223 7.27314 15.4842C7.36453 15.4461 7.44748 15.3904 7.5172 15.3201L11.4997 11.3226C12.6882 10.134 13.3559 8.52209 13.3559 6.8413C13.3559 5.16051 12.6882 3.54856 11.4997 2.36005ZM10.4272 10.2501L6.9997 13.6926L3.5722 10.2501C2.89506 9.57229 2.43406 8.70899 2.24747 7.76927C2.06089 6.82956 2.15709 5.85561 2.52393 4.97057C2.89077 4.08552 3.51177 3.32909 4.30843 2.79691C5.10509 2.26473 6.04164 1.98069 6.9997 1.98069C7.95776 1.98069 8.89432 2.26473 9.69098 2.79691C10.4876 3.32909 11.1086 4.08552 11.4755 4.97057C11.8423 5.85561 11.9385 6.82956 11.7519 7.76927C11.5653 8.70899 11.1043 9.57229 10.4272 10.2501ZM4.7497 4.55755C4.14424 5.16488 3.80425 5.98748 3.80425 6.84505C3.80425 7.70263 4.14424 8.52523 4.7497 9.13256C5.19952 9.58315 5.77239 9.89087 6.39644 10.0171C7.02049 10.1433 7.66792 10.0825 8.25751 9.84217C8.8471 9.60185 9.35259 9.19276 9.71056 8.66624C10.0685 8.13972 10.2631 7.51921 10.2697 6.88256C10.2731 6.45746 10.1912 6.036 10.0289 5.6431C9.86657 5.25019 9.62712 4.89382 9.3247 4.59505C9.02746 4.29099 8.67301 4.04871 8.28177 3.88215C7.89053 3.7156 7.47021 3.62806 7.045 3.62458C6.6198 3.62109 6.1981 3.70173 5.80418 3.86185C5.41026 4.02196 5.05189 4.2584 4.7497 4.55755ZM8.2672 8.06755C7.98299 8.35611 7.60736 8.53698 7.20455 8.57924C6.80174 8.62151 6.39675 8.52253 6.05883 8.29925C5.72092 8.07597 5.47105 7.74224 5.35196 7.35512C5.23287 6.968 5.25194 6.55153 5.40592 6.17692C5.5599 5.80231 5.83923 5.49282 6.19614 5.30136C6.55306 5.1099 6.96539 5.04836 7.36266 5.12727C7.75992 5.20617 8.11744 5.42062 8.37409 5.73395C8.63073 6.04728 8.77058 6.44003 8.7697 6.84505C8.75879 7.30801 8.56457 7.7477 8.2297 8.06755H8.2672Z" fill="#4D4D4D"/>
</svg>
