<svg width="24" height="24" viewBox="0 0 24 24" fill="none" xmlns="http://www.w3.org/2000/svg">
<path d="M11.148 15.948C11.0964 16.005 11.0483 16.0651 11.004 16.128C10.9586 16.1949 10.9223 16.2675 10.896 16.344C10.8614 16.412 10.8371 16.4848 10.824 16.56C10.8181 16.6399 10.8181 16.7201 10.824 16.8C10.8199 16.9574 10.8528 17.1136 10.92 17.256C10.9739 17.4049 11.0599 17.5402 11.1719 17.6521C11.2838 17.7641 11.4191 17.8501 11.568 17.904C11.7116 17.9675 11.867 18.0003 12.024 18.0003C12.181 18.0003 12.3364 17.9675 12.48 17.904C12.6289 17.8501 12.7642 17.7641 12.8761 17.6521C12.9881 17.5402 13.0741 17.4049 13.128 17.256C13.1813 17.1101 13.2057 16.9552 13.2 16.8C13.2009 16.6421 13.1706 16.4855 13.1109 16.3393C13.0512 16.1931 12.9632 16.0601 12.852 15.948C12.7404 15.8355 12.6077 15.7462 12.4615 15.6853C12.3153 15.6244 12.1584 15.593 12 15.593C11.8416 15.593 11.6847 15.6244 11.5385 15.6853C11.3923 15.7462 11.2596 15.8355 11.148 15.948ZM12 0C9.62663 0 7.30655 0.703788 5.33316 2.02236C3.35977 3.34094 1.8217 5.21508 0.913451 7.4078C0.00519941 9.60051 -0.232441 12.0133 0.230582 14.3411C0.693604 16.6689 1.83649 18.807 3.51472 20.4853C5.19295 22.1635 7.33115 23.3064 9.65892 23.7694C11.9867 24.2324 14.3995 23.9948 16.5922 23.0865C18.7849 22.1783 20.6591 20.6402 21.9776 18.6668C23.2962 16.6934 24 14.3734 24 12C24 10.4241 23.6896 8.8637 23.0866 7.4078C22.4835 5.95189 21.5996 4.62902 20.4853 3.51472C19.371 2.40041 18.0481 1.5165 16.5922 0.913445C15.1363 0.310389 13.5759 0 12 0ZM12 21.6C10.1013 21.6 8.24524 21.037 6.66653 19.9821C5.08782 18.9272 3.85736 17.4279 3.13076 15.6738C2.40416 13.9196 2.21405 11.9893 2.58447 10.1271C2.95488 8.26491 3.86919 6.55436 5.21178 5.21177C6.55436 3.86919 8.26492 2.95488 10.1271 2.58446C11.9894 2.21404 13.9196 2.40415 15.6738 3.13076C17.4279 3.85736 18.9272 5.08781 19.9821 6.66652C21.037 8.24524 21.6 10.1013 21.6 12C21.6 14.5461 20.5886 16.9879 18.7882 18.7882C16.9879 20.5886 14.5461 21.6 12 21.6ZM12 6C11.3677 5.99959 10.7464 6.16574 10.1987 6.48173C9.65098 6.79772 9.19616 7.25239 8.88 7.8C8.79318 7.93658 8.73488 8.08931 8.70861 8.24901C8.68234 8.40871 8.68865 8.57207 8.72716 8.72926C8.76566 8.88646 8.83556 9.03424 8.93266 9.16372C9.02976 9.2932 9.15205 9.4017 9.29217 9.48269C9.43229 9.56368 9.58734 9.6155 9.748 9.63501C9.90866 9.65453 10.0716 9.64134 10.227 9.59625C10.3825 9.55116 10.5272 9.47509 10.6525 9.37262C10.7777 9.27015 10.881 9.1434 10.956 9C11.0617 8.81687 11.214 8.66494 11.3973 8.55957C11.5806 8.45421 11.7885 8.39916 12 8.4C12.3183 8.4 12.6235 8.52643 12.8485 8.75147C13.0736 8.97651 13.2 9.28174 13.2 9.6C13.2 9.91826 13.0736 10.2235 12.8485 10.4485C12.6235 10.6736 12.3183 10.8 12 10.8C11.6817 10.8 11.3765 10.9264 11.1515 11.1515C10.9264 11.3765 10.8 11.6817 10.8 12V13.2C10.8 13.5183 10.9264 13.8235 11.1515 14.0485C11.3765 14.2736 11.6817 14.4 12 14.4C12.3183 14.4 12.6235 14.2736 12.8485 14.0485C13.0736 13.8235 13.2 13.5183 13.2 13.2V12.984C13.9936 12.696 14.6608 12.1383 15.0849 11.4082C15.509 10.6782 15.663 9.82235 15.5201 8.99027C15.3771 8.15818 14.9462 7.40282 14.3028 6.85622C13.6593 6.30961 12.8443 6.00655 12 6Z" fill="#6F6E77"/>
</svg>
