<svg width="21" height="21" viewBox="0 0 21 21" fill="none" xmlns="http://www.w3.org/2000/svg">
<path d="M18.7912 11.4859C18.6331 11.3059 18.5459 11.0745 18.5459 10.835C18.5459 10.5954 18.6331 10.364 18.7912 10.184L20.0537 8.76375C20.1928 8.60858 20.2792 8.41333 20.3005 8.20601C20.3217 7.9987 20.2768 7.78997 20.172 7.60979L18.1995 4.19722C18.0958 4.01724 17.938 3.87458 17.7485 3.78957C17.559 3.70456 17.3475 3.68155 17.1441 3.7238L15.2899 4.09859C15.054 4.14734 14.8083 4.10805 14.5994 3.98813C14.3904 3.8682 14.2326 3.67595 14.1557 3.44764L13.554 1.64272C13.4879 1.44682 13.3618 1.27668 13.1937 1.15633C13.0255 1.03597 12.8238 0.971511 12.617 0.972044H8.67188C8.4568 0.960818 8.24396 1.0203 8.06586 1.1414C7.88777 1.26251 7.75421 1.43858 7.68558 1.64272L7.13326 3.44764C7.05633 3.67595 6.89849 3.8682 6.68954 3.98813C6.48058 4.10805 6.23496 4.14734 5.99902 4.09859L4.09548 3.7238C3.90271 3.69656 3.70619 3.72698 3.53068 3.81122C3.35516 3.89547 3.20851 4.02978 3.10919 4.19722L1.1366 7.60979C1.02925 7.78797 0.980987 7.99552 0.998701 8.20277C1.01642 8.41003 1.0992 8.60638 1.23523 8.76375L2.48782 10.184C2.64594 10.364 2.73315 10.5954 2.73315 10.835C2.73315 11.0745 2.64594 11.3059 2.48782 11.4859L1.23523 12.9062C1.0992 13.0636 1.01642 13.2599 0.998701 13.4672C0.980987 13.6744 1.02925 13.882 1.1366 14.0601L3.10919 17.4727C3.21284 17.6527 3.37067 17.7954 3.56017 17.8804C3.74967 17.9654 3.96117 17.9884 4.16452 17.9461L6.01875 17.5713C6.25469 17.5226 6.50031 17.5619 6.70926 17.6818C6.91822 17.8017 7.07606 17.994 7.15299 18.2223L7.75462 20.0272C7.82325 20.2314 7.95681 20.4074 8.1349 20.5285C8.313 20.6496 8.52584 20.7091 8.74092 20.6979H12.6861C12.8929 20.6984 13.0946 20.634 13.2627 20.5136C13.4308 20.3933 13.5569 20.2231 13.6231 20.0272L14.2247 18.2223C14.3016 17.994 14.4595 17.8017 14.6684 17.6818C14.8774 17.5619 15.123 17.5226 15.3589 17.5713L17.2132 17.9461C17.4165 17.9884 17.628 17.9654 17.8175 17.8804C18.007 17.7954 18.1648 17.6527 18.2685 17.4727L20.2411 14.0601C20.3458 13.88 20.3908 13.6712 20.3695 13.4639C20.3482 13.2566 20.2618 13.0614 20.1227 12.9062L18.7912 11.4859ZM17.3217 12.8076L18.1107 13.6952L16.8482 15.8848L15.6844 15.6481C14.9741 15.5029 14.2351 15.6235 13.6079 15.9872C12.9806 16.3508 12.5087 16.9321 12.2817 17.6207L11.9069 18.7253H9.382L9.02694 17.6009C8.79995 16.9123 8.32803 16.3311 7.70078 15.9674C7.07352 15.6038 6.33458 15.4831 5.62423 15.6284L4.46041 15.8651L3.17823 13.6854L3.96726 12.7977C4.45247 12.2552 4.72072 11.5529 4.72072 10.8251C4.72072 10.0973 4.45247 9.395 3.96726 8.85252L3.17823 7.96486L4.44068 5.79501L5.60451 6.03172C6.31485 6.17693 7.05379 6.05626 7.68105 5.69264C8.30831 5.32901 8.78022 4.74773 9.00721 4.05914L9.382 2.94463H11.9069L12.2817 4.069C12.5087 4.75759 12.9806 5.33887 13.6079 5.7025C14.2351 6.06613 14.9741 6.18679 15.6844 6.04159L16.8482 5.80488L18.1107 7.99445L17.3217 8.88211C16.8419 9.42335 16.577 10.1216 16.577 10.8448C16.577 11.5681 16.8419 12.2663 17.3217 12.8076ZM10.6445 6.8898C9.86418 6.8898 9.10142 7.12118 8.45264 7.55468C7.80386 7.98818 7.2982 8.60433 6.9996 9.32522C6.701 10.0461 6.62287 10.8393 6.7751 11.6046C6.92732 12.3699 7.30306 13.0729 7.8548 13.6246C8.40655 14.1764 9.10951 14.5521 9.8748 14.7043C10.6401 14.8566 11.4333 14.7784 12.1542 14.4798C12.8751 14.1812 13.4912 13.6756 13.9247 13.0268C14.3582 12.378 14.5896 11.6152 14.5896 10.835C14.5896 9.78864 14.174 8.78517 13.4341 8.04531C12.6943 7.30545 11.6908 6.8898 10.6445 6.8898ZM10.6445 12.8076C10.2543 12.8076 9.87294 12.6919 9.54855 12.4751C9.22416 12.2584 8.97133 11.9503 8.82203 11.5898C8.67273 11.2294 8.63367 10.8328 8.70978 10.4501C8.78589 10.0675 8.97376 9.71601 9.24963 9.44014C9.5255 9.16427 9.87698 8.9764 10.2596 8.90029C10.6423 8.82417 11.0389 8.86324 11.3993 9.01254C11.7598 9.16184 12.0679 9.41467 12.2846 9.73906C12.5014 10.0634 12.617 10.4448 12.617 10.835C12.617 11.3581 12.4092 11.8599 12.0393 12.2298C11.6694 12.5997 11.1676 12.8076 10.6445 12.8076Z" fill="#6F6E77"/>
</svg>
