<svg width="16" height="16" viewBox="0 0 16 16" fill="none" xmlns="http://www.w3.org/2000/svg">
<path d="M12.867 5.41706L12.1503 3.75039L10.417 2.98372L12.1503 2.23372L12.867 0.650391L13.5837 2.23372L15.317 2.98372L13.5837 3.75039L12.867 5.41706ZM12.867 15.3337L12.1503 13.7337L10.417 12.9837L12.1503 12.2337L12.867 10.5504L13.5837 12.2337L15.317 12.9837L13.5837 13.7337L12.867 15.3337ZM5.55033 12.7671L4.01699 9.48372L0.666992 7.98372L4.01699 6.48372L5.55033 3.21706L7.10033 6.48372L10.4337 7.98372L7.10033 9.48372L5.55033 12.7671ZM5.55033 10.3004L6.35033 8.70039L7.98366 7.98372L6.35033 7.26706L5.55033 5.66706L4.76699 7.26706L3.11699 7.98372L4.76699 8.70039L5.55033 10.3004Z" fill="url(#paint0_diamond_1767_44747)"/>
<defs>
<radialGradient id="paint0_diamond_1767_44747" cx="0" cy="0" r="1" gradientUnits="userSpaceOnUse" gradientTransform="translate(13 0.500001) rotate(109.29) scale(10.5948 26.08)">
<stop stop-color="#39AD37"/>
<stop offset="1" stop-color="#277BC0"/>
</radialGradient>
</defs>
</svg>
