<svg width="18" height="16" viewBox="0 0 18 16" fill="none" xmlns="http://www.w3.org/2000/svg">
<path d="M16.5 11.5553V2.50276C16.5 1.60276 15.765 0.935264 14.8725 1.01026H14.8275C13.2525 1.14526 10.86 1.94776 9.525 2.78776L9.3975 2.87026C9.18 3.00526 8.82 3.00526 8.6025 2.87026L8.415 2.75776C7.08 1.92526 4.695 1.13026 3.12 1.00276C2.2275 0.927764 1.5 1.60276 1.5 2.49526V11.5553C1.5 12.2753 2.085 12.9503 2.805 13.0403L3.0225 13.0703C4.65 13.2878 7.1625 14.1128 8.6025 14.9003L8.6325 14.9153C8.835 15.0278 9.1575 15.0278 9.3525 14.9153C10.7925 14.1203 13.3125 13.2878 14.9475 13.0703L15.195 13.0403C15.915 12.9503 16.5 12.2753 16.5 11.5553Z" stroke="#4D4D4D" stroke-width="1.5" stroke-linecap="round" stroke-linejoin="round"/>
</svg>
