<svg width="21" height="20" viewBox="0 0 21 20" fill="none" xmlns="http://www.w3.org/2000/svg">
<path d="M17.3334 2H15.3334V1C15.3334 0.734784 15.228 0.48043 15.0405 0.292893C14.8529 0.105357 14.5986 0 14.3334 0C14.0682 0 13.8138 0.105357 13.6263 0.292893C13.4387 0.48043 13.3334 0.734784 13.3334 1V2H7.33337V1C7.33337 0.734784 7.22802 0.48043 7.04048 0.292893C6.85294 0.105357 6.59859 0 6.33337 0C6.06816 0 5.8138 0.105357 5.62627 0.292893C5.43873 0.48043 5.33337 0.734784 5.33337 1V2H3.33337C2.53772 2 1.77466 2.31607 1.21205 2.87868C0.649445 3.44129 0.333374 4.20435 0.333374 5V17C0.333374 17.7956 0.649445 18.5587 1.21205 19.1213C1.77466 19.6839 2.53772 20 3.33337 20H17.3334C18.129 20 18.8921 19.6839 19.4547 19.1213C20.0173 18.5587 20.3334 17.7956 20.3334 17V5C20.3334 4.20435 20.0173 3.44129 19.4547 2.87868C18.8921 2.31607 18.129 2 17.3334 2V2ZM18.3334 17C18.3334 17.2652 18.228 17.5196 18.0405 17.7071C17.8529 17.8946 17.5986 18 17.3334 18H3.33337C3.06816 18 2.8138 17.8946 2.62627 17.7071C2.43873 17.5196 2.33337 17.2652 2.33337 17V10H18.3334V17ZM18.3334 8H2.33337V5C2.33337 4.73478 2.43873 4.48043 2.62627 4.29289C2.8138 4.10536 3.06816 4 3.33337 4H5.33337V5C5.33337 5.26522 5.43873 5.51957 5.62627 5.70711C5.8138 5.89464 6.06816 6 6.33337 6C6.59859 6 6.85294 5.89464 7.04048 5.70711C7.22802 5.51957 7.33337 5.26522 7.33337 5V4H13.3334V5C13.3334 5.26522 13.4387 5.51957 13.6263 5.70711C13.8138 5.89464 14.0682 6 14.3334 6C14.5986 6 14.8529 5.89464 15.0405 5.70711C15.228 5.51957 15.3334 5.26522 15.3334 5V4H17.3334C17.5986 4 17.8529 4.10536 18.0405 4.29289C18.228 4.48043 18.3334 4.73478 18.3334 5V8Z" fill="#4D4D4D"/>
</svg>
